<?xml version="1.0" encoding="UTF-8"?>
<svg xmlns="http://www.w3.org/2000/svg" id="Слой_1" data-name="Слой 1" viewBox="0 0 302 120">
  <defs>
    <style>.cls-1{fill:#474c53;}.cls-2{fill:#fdc126;fill-rule:evenodd;}.cls-3{fill:#2c323a;}</style>
  </defs>
  <path class="cls-1" d="M82.09,70.45H85.6l1.12-3.32h7l1.12,3.32h3.51L91.91,51.79H88.52Zm8.14-13.73L92.6,63.8H87.86Zm15.58,14c4.14,0,5.94-2.78,5.94-4.88,0-3.15-2.72-4-5.1-4.5-2.17-.49-3.31-.74-3.31-1.74,0-.84.74-1.61,2.32-1.61a3.42,3.42,0,0,1,3.08,1.71l2.84-1.48c-1.12-1.92-3-3.09-5.92-3.09-3.43,0-5.68,2.16-5.68,4.57,0,3.15,2.59,4,5.07,4.5,1.78.41,3.39.62,3.39,1.71s-.82,1.81-2.47,1.81a3.66,3.66,0,0,1-3.49-2.16l-3.09,1.53C100.54,69.48,102.57,70.76,105.81,70.76Zm8.07-.31h3.37v-15h-3.37Zm-.42-18.61a2,2,0,0,0,2.1,2.15,2.16,2.16,0,0,0,0-4.32A2,2,0,0,0,113.46,51.84Zm13.06,18.92a5.86,5.86,0,0,0,4.7-2.25v1.94h3.34v-15h-3.34v1.8a5.9,5.9,0,0,0-4.64-2.1c-3.67,0-7.18,2.84-7.18,7.8S123,70.76,126.52,70.76Zm.55-3.17a4.64,4.64,0,0,1,0-9.26,4.64,4.64,0,0,1,0,9.26Zm9.5,2.86h3.51l1.12-3.32h7l1.11,3.32h3.51l-6.43-18.66H143Zm8.14-13.73,2.38,7.08h-4.75ZM165.36,70.2a4.12,4.12,0,0,1-4.1,4.32c-2.3,0-3.44-1-4.5-3l-3,1.87a7.86,7.86,0,0,0,7.42,4.3c4.88,0,7.47-3.43,7.47-7.62V55.49h-3.33v1.93a5.89,5.89,0,0,0-4.66-2.23c-3.66,0-7.17,2.84-7.17,7.8s3.63,7.77,7.12,7.77a5.78,5.78,0,0,0,4.72-2.3Zm-4.17-2.61a4.64,4.64,0,0,1,0-9.26,4.64,4.64,0,0,1,0,9.26Zm10.26,2.86h3.34v-8c0-2.58,1-3.66,3-3.66a3.17,3.17,0,0,1,2,.59L181,56.14a4.93,4.93,0,0,0-2.55-.65,3.71,3.71,0,0,0-3.71,2.23V55.49h-3.32Zm17.89.31A7.79,7.79,0,1,0,181.85,63,7.63,7.63,0,0,0,189.34,70.76Zm0-3.25a4.55,4.55,0,1,1,4.2-4.52A4.33,4.33,0,0,1,189.34,67.51Zm9.73,2.94h3.36V62.73h6.86V59.41h-6.86v-4.3h6.86V51.79H199.07Zm19.66.31A7.79,7.79,0,1,0,211.24,63,7.63,7.63,0,0,0,218.73,70.76Zm0-3.25A4.55,4.55,0,1,1,222.94,63,4.33,4.33,0,0,1,218.73,67.51Zm16.8,3.25A7.79,7.79,0,1,0,228,63,7.63,7.63,0,0,0,235.53,70.76Zm0-3.25a4.55,4.55,0,1,1,4.2-4.52A4.33,4.33,0,0,1,235.53,67.51ZM252,70.76a5.87,5.87,0,0,0,4.7-2.25v1.94H260V51.53h-3.37v5.73A5.86,5.86,0,0,0,252,55.19c-3.66,0-7.17,2.84-7.17,7.8S248.47,70.76,252,70.76Zm.54-3.17a4.64,4.64,0,0,1,0-9.26,4.64,4.64,0,0,1,0,9.26Z"></path>
  <path class="cls-2" d="M59.21,42.68l-4.46,3.73V58l4.46-3.74Zm.25,37.21H64.8a1,1,0,0,0,0-2H59.46Zm-2.17-3.74a1,1,0,0,0-1,1v3.53a1,1,0,0,0,2,0V77.14A1,1,0,0,0,57.29,76.15Zm-3.22,0a1,1,0,0,1,1,1v3.53a1,1,0,0,1-1,1,1,1,0,0,1-1-1V77.14A1,1,0,0,1,54.07,76.15Zm-3.22,0a1,1,0,0,1,1,1v3.53a1,1,0,0,1-2,0V77.14A1,1,0,0,1,50.85,76.15Zm-2.18,3.74H43.33a1,1,0,1,1,0-2h5.34Zm-1.6-24.65,6.31,5.29V70.62l-6.31-5.27Zm14,0-6.31,5.29V70.62l6.31-5.27ZM48.92,42.68l4.46,3.73V58L48.92,54.3Z"></path>
  <path class="cls-3" d="M59.81,79.54h5a.64.64,0,0,0,0-1.27h-5Zm5,.69H59.11V77.57H64.8a1.33,1.33,0,1,1,0,2.66ZM57.29,76.5a.64.64,0,0,0-.64.64v3.53a.64.64,0,0,0,1.27,0V77.14A.64.64,0,0,0,57.29,76.5Zm0-.7a1.34,1.34,0,0,1,1.33,1.34v3.53a1.33,1.33,0,1,1-2.66,0V77.14A1.33,1.33,0,0,1,57.29,75.8Zm-3.22,0a1.34,1.34,0,0,1,1.33,1.34v3.53a1.33,1.33,0,1,1-2.66,0V77.14A1.34,1.34,0,0,1,54.07,75.8Zm0,.7a.64.64,0,0,0-.63.64v3.53a.63.63,0,0,0,.63.63.63.63,0,0,0,.63-.63V77.14A.64.64,0,0,0,54.07,76.5Zm-3.22-.7a1.34,1.34,0,0,1,1.33,1.34v3.53a1.34,1.34,0,0,1-2.67,0V77.14A1.35,1.35,0,0,1,50.85,75.8Zm0,.7a.64.64,0,0,0-.63.64v3.53a.63.63,0,1,0,1.26,0V77.14A.64.64,0,0,0,50.85,76.5Zm-7.52,3.73a1.33,1.33,0,1,1,0-2.66H49v2.66Zm0-.69h5V78.27h-5a.64.64,0,1,0,0,1.27Zm10.4-5.75H53v-3l-6.31-5.28V40.31h.7V55.08l6.31,5.28Zm1.37-3v3h-.7V60.36l6.31-5.28V40.31h.71v25.2ZM60.71,56,55.1,60.68v9.19l5.61-4.69ZM58.86,43.43,55.1,46.58V57.29l3.76-3.15Zm-4.34,2.71,4.34-3.62V38h.71V54.46L54.4,58.79V46.25Zm-5.25-3.62,4.46,3.73V58.79l-5.16-4.33V38h.7ZM53,46.58l-3.76-3.15V54.14L53,57.29Zm0,14.1L47.42,56v9.19L53,69.87ZM44.21,38.85v27.8h-.7V38.85Zm20.42,0v27.8h-.71V38.85Z"></path>
</svg>
