<?xml version="1.0" encoding="UTF-8"?>
<svg xmlns="http://www.w3.org/2000/svg" id="Слой_1" data-name="Слой 1" viewBox="0 0 303 120">
  <defs>
    <style>.cls-1{fill:#ff5100;}.cls-2,.cls-3{fill:#1a2029;}.cls-2{fill-rule:evenodd;}</style>
  </defs>
  <path class="cls-1" d="M50.71,78.23a.52.52,0,0,0,.46.74H63.91a.78.78,0,0,0,.79-.61A31,31,0,0,1,88.86,56.29a1,1,0,0,0,.8-.74l.7-2.91C74.2,53.43,58,61.45,50.71,78.23Z"></path>
  <path class="cls-1" d="M93,42.5,93.6,40H39.33a5.2,5.2,0,0,0-5,3.94L32,53.29a.81.81,0,0,0,1.09.93C49.19,47.09,69.79,43.34,92,43.29A1,1,0,0,0,93,42.5Z"></path>
  <path class="cls-1" d="M28.61,66.72l-2,8.13a3.29,3.29,0,0,0,3.19,4.08h9.58a1.11,1.11,0,0,0,1-.65c8.09-16.5,24.87-27.43,50.07-28.55A1,1,0,0,0,91.4,49l.65-2.72C65.32,46.53,45.62,53,29.79,65A2.8,2.8,0,0,0,28.61,66.72Z"></path>
  <path class="cls-1" d="M73.6,78.36c1.44-9.19,7.51-16.53,15.21-19.2L84.73,75.51A4.64,4.64,0,0,1,80.26,79H74.11A.51.51,0,0,1,73.6,78.36Z"></path>
  <path class="cls-2" d="M146.1,40.1H131.73l-6.31,25.07h14.47a7.8,7.8,0,0,0,4.79-1.32c1.33-1,2.31-2.24,3.16-5.53,1-3.94,0-5.13-2.78-5.68l.06-.1c2.8-.61,4.51-2.11,5.39-5.69.71-2.8.52-4.46-.33-5.52C149.53,40.48,148.17,40.1,146.1,40.1Zm-5.26,14.55c.93,0,1.23.09,1.45.33s.33.62-.19,2.77-.84,2.4-1.22,2.67a2.53,2.53,0,0,1-1.59.29h-6.77l1.5-6.06Zm2.34-4.37c-.27.19-.56.24-1.49.24H135l1.39-5.92h6.64c1,0,1.25.1,1.44.29s.3,1-.08,2.63A5.32,5.32,0,0,1,143.18,50.28Z"></path>
  <path class="cls-3" d="M161.75,65.23l5.11-20.44h7.24l1.17-4.69H154.51l-1.12,4.69H161l-5.07,20.44Z"></path>
  <path class="cls-2" d="M196.42,41.33c-.66-.85-1.72-1.23-4.22-1.23h-7.81c-2.43,0-3.65.38-4.79,1.23-1.78,1.3-3.43,3.61-5.31,11.31s-1.5,10-.38,11.31c.68.85,1.74,1.22,4.24,1.22h7.79c2.45,0,3.67-.37,4.81-1.22,1.72-1.36,3.38-3.61,5.31-11.31S197.51,42.63,196.42,41.33Zm-15.6,19.25c-1.12,0-1.41-.11-1.63-.33s-.52-1.19,1.07-7.58,2.3-7.26,2.68-7.56.71-.36,1.83-.36h4.79c1.14,0,1.41.14,1.6.36s.52,1.19-1.08,7.56-2.29,7.24-2.67,7.58-.66.36-1.79.33Z"></path>
  <path class="cls-2" d="M250.52,41.33c-.66-.85-1.74-1.23-4.23-1.23h-7.8c-2.45,0-3.67.38-4.79,1.23-1.8,1.3-3.38,3.61-5.31,11.31s-1.52,10-.38,11.31c.65.85,1.74,1.22,4.22,1.22H240c2.45,0,3.67-.37,4.79-1.22,1.74-1.36,3.38-3.61,5.31-11.31S251.6,42.63,250.52,41.33Zm-15.6,19.25c-1.14,0-1.41-.11-1.65-.33s-.52-1.19,1.08-7.58,2.31-7.26,2.67-7.56.71-.36,1.85-.36h4.79c1.12,0,1.41.14,1.6.36s.52,1.19-1.08,7.56-2.31,7.24-2.69,7.58-.66.36-1.78.33Z"></path>
  <path class="cls-2" d="M267.39,56.67a7.58,7.58,0,0,0,4.51-1c1.37-1,2.81-2.62,4-7.24s.57-6.28-.33-7.32c-.7-.75-2-1-4-1H258l-6.26,25.13h5.83l2.15-8.56Zm.9-4.84a4.05,4.05,0,0,1-2.07.29h-5.31l1.83-7.42h5.36c1.3,0,1.69.09,1.87.33s.52.95-.1,3.37S268.75,51.47,268.29,51.83Z"></path>
  <path class="cls-2" d="M103.48,48.59c1.88-7.32,3.7-8.49,10.48-8.49h12.49l-6.24,25.13h-5.93l2.21-9.08h-9c-1.19,4.56-2.31,9-2.31,9h-6S101.63,55.69,103.48,48.59Zm6.48-2.1c-.14.52-.71,2.67-1.36,5.31h9l1.91-7.2H113C111.79,44.6,110.42,44.7,110,46.49Z"></path>
  <path class="cls-2" d="M200.61,65.23l-.93,3.27H194.4l2-7.89h.51a2.56,2.56,0,0,0,1.28-.27c3.57-2.9,4.67-6.54,5.85-10.48l.2-.65c.06-.21.13-.43.19-.66.47-1.58,1-3.36,1.74-5.5.6-1.78,1-2.91,3.75-2.91h16.17L221,60.61h2.67l-2,7.89h-5.12l.74-3.27Zm9.82-18.63c-.31,1-.7,2.19-1.31,4.25-1.27,4.32-2.55,7.8-4.65,9.76h10.61l3.95-16h-7a1.24,1.24,0,0,0-1.27.94C210.65,45.89,210.54,46.23,210.43,46.6Z"></path>
  <path class="cls-3" d="M96.43,79l1.17-4.32H100L98.83,79h1l1.36-5.15H96.84L95.45,79Z"></path>
  <path class="cls-3" d="M102,77c-.19.85-.41,1.12-.93,1.17l-.24.85c1.14,0,1.79-.6,2.12-1.93l.66-2.43h2.06L104.56,79h1l1.36-5.15h-4Z"></path>
  <path class="cls-2" d="M107.61,79l.57-1h2.16l.08,1h1l-.36-5.15h-1.47L106.53,79Zm.93-1.73,1.61-2.68.19,2.68Z"></path>
  <path class="cls-3" d="M113.06,79h1l1.19-4.31h1.5l.23-.84h-4l-.24.84h1.47Z"></path>
  <path class="cls-3" d="M120,79h1l1.37-5.15h-1l-.56,2.1h-2.4l.57-2.1h-1L116.63,79h1l.55-2.21h2.39Z"></path>
  <path class="cls-3" d="M124.86,73.85v0Z"></path>
  <path class="cls-2" d="M124.86,73.85h-.94L122.56,79h2.91a1.69,1.69,0,0,0,1.46-1,4.84,4.84,0,0,0,.37-1.5.81.81,0,0,0-.47-.85l-.15-.07a3.36,3.36,0,0,0-1.07-.06h-1.18Zm0,4.27h-1.22l.51-1.82h1.14c.71,0,.85.1.85.43a9.34,9.34,0,0,1-.28,1C125.71,78.09,125.56,78.12,124.9,78.12Z"></path>
  <path class="cls-3" d="M127.11,79h1l1.36-5.15h-1Z"></path>
  <path class="cls-3" d="M133.79,76h-2.44l.38-1.36h2.53l.24-.79H131L129.55,79h3.57l.24-.86h-2.58l.43-1.44h2.39Z"></path>
  <path class="cls-2" d="M142.67,78.12H142l1.14-4.3h-4l-.81,2.94c-.22,1-.41,1.33-1,1.36h-.19L136.6,80h1l.3-1h3.57l-.28,1h1Zm-.76-3.46L141,78.12h-2.59a1.87,1.87,0,0,0,.9-1.36l.55-2.1Z"></path>
  <path class="cls-2" d="M148.82,75a1.28,1.28,0,0,0-.28-.9c-.29-.27-.62-.32-1.6-.32a2.73,2.73,0,0,0-2.12.56,3.45,3.45,0,0,0-.84,1.78,7.2,7.2,0,0,0-.36,1.74.92.92,0,0,0,.46,1,3.13,3.13,0,0,0,1.45.19,2.83,2.83,0,0,0,2.12-.6,3.41,3.41,0,0,0,.79-1.74A7.05,7.05,0,0,0,148.82,75ZM145,76.3c.22-.93.27-1.09.46-1.31s.42-.38,1.23-.33c.55,0,.74,0,.89.09s.23.24.23.51a1.4,1.4,0,0,1-.07.39c0,.11-.07.27-.12.51a6.51,6.51,0,0,1-.26,1l0,.06c-.28.85-.52,1-1.46,1-.61,0-.8,0-.93-.11s-.25-.22-.25-.51a6,6,0,0,1,.29-1.28Z"></path>
  <path class="cls-2" d="M152.63,73.82h-2.12L149.15,79h1l.41-1.64h1.17c.57,0,.71,0,.81,0a1.48,1.48,0,0,0,1.4-1,4.66,4.66,0,0,0,.38-1.45.91.91,0,0,0-.52-.9A3.21,3.21,0,0,0,152.63,73.82Zm.33,2.29c-.14.29-.38.33-1,.33H150.8l.47-1.83h1.22c.66,0,.76.09.76.47A3.11,3.11,0,0,1,153,76.11Z"></path>
  <path class="cls-2" d="M159.87,75a1.28,1.28,0,0,0-.28-.9c-.29-.27-.62-.32-1.6-.32-1.17,0-1.66.13-2.12.56a3.37,3.37,0,0,0-.85,1.78l0,.08a7.26,7.26,0,0,0-.35,1.66,1,1,0,0,0,.48,1,3.13,3.13,0,0,0,1.45.19,2.84,2.84,0,0,0,2.12-.6,3.58,3.58,0,0,0,.79-1.74A7.05,7.05,0,0,0,159.87,75ZM156,76.3c.24-.93.29-1.09.48-1.31s.41-.38,1.22-.33c.55,0,.74,0,.88.09s.24.24.24.51a2.52,2.52,0,0,1-.19.9,7.08,7.08,0,0,1-.24,1l0,.12c-.3.85-.52,1-1.47,1-.6,0-.79,0-.93-.11s-.24-.22-.24-.51a5.47,5.47,0,0,1,.23-1.13C156,76.42,156,76.36,156,76.3Z"></path>
  <path class="cls-3" d="M161.56,73.82,160.2,79h1l1.14-4.32h2.39l.22-.84Z"></path>
  <path class="cls-3" d="M168.79,76,168,79h1l1.36-5.15h-1.5l-3.07,4.3h0l.17-.65a1.49,1.49,0,0,0,.12-.38c0-.08,0-.18.07-.28l.81-3h-1L164.61,79h1.51l3-4.32h0l-.1.32-.09.35a.76.76,0,0,0-.08.24A2.52,2.52,0,0,1,168.79,76Z"></path>
</svg>
