<?xml version="1.0" encoding="UTF-8"?>
<svg xmlns="http://www.w3.org/2000/svg" width="302" height="120" viewBox="0 0 302 120" fill="none">
  <path fill-rule="evenodd" clip-rule="evenodd" d="M146.069 25.1148L144.984 25.1816L144.35 27.8345C143.816 30.137 143.683 30.5041 143.399 30.5041C143.115 30.5041 143.082 30.6376 143.082 31.939V33.3572L143.716 33.3072C144.3 33.2571 144.333 33.2237 144.417 32.5897L144.5 31.9223L145.501 31.8222C146.052 31.7555 146.97 31.7054 147.52 31.6887L148.538 31.672L148.655 32.3394L148.755 33.0068H149.756H150.757L150.857 32.3394L150.974 31.672H152.659C154.962 31.672 155.095 31.7221 155.095 32.523C155.095 32.8456 155.095 33.0082 155.176 33.0903C155.259 33.1737 155.426 33.1737 155.762 33.1737H156.43V31.7555C156.43 30.454 156.397 30.3372 156.096 30.3372C156.038 30.3372 155.99 30.3372 155.947 30.323C155.726 30.2508 155.625 29.8123 155.012 27.1505L155.012 27.1504L154.578 25.1983L153.961 25.0982C153.627 25.0481 153.076 24.998 152.743 24.998H152.142L151.241 27.5342L150.34 30.087L149.723 30.1203L149.122 30.1704L148.254 27.5842C147.787 26.166 147.337 25.0147 147.287 25.0314C147.22 25.0481 146.669 25.0815 146.069 25.1148ZM146.676 28.3672C147.02 29.5707 147.154 30.0394 146.983 30.2217C146.874 30.338 146.64 30.3377 146.258 30.3373L146.185 30.3372H145.301L145.601 28.7855C145.952 27.117 146.085 26.6165 146.169 26.6999C146.202 26.7333 146.419 27.4341 146.652 28.285L146.676 28.3672ZM153.493 28.4352C153.66 29.4029 153.76 30.2204 153.727 30.2538C153.694 30.2872 153.293 30.2538 152.826 30.2038L151.975 30.087L152.476 28.3684C152.759 27.4341 153.026 26.6665 153.093 26.6665C153.16 26.6665 153.343 27.4674 153.493 28.4352ZM158.599 25.8657C156.547 26.9335 156.33 30.4874 158.232 31.7888C159.316 32.5063 160.985 32.4562 161.986 31.672C163.071 30.8044 163.521 28.4685 162.87 27.117C162.17 25.6821 160.117 25.0815 158.599 25.8657ZM160.868 27.4174C161.185 27.9012 161.118 29.4362 160.751 30.2371C160.401 31.0046 159.35 31.0046 159.166 30.2371C158.999 29.553 159.183 27.9012 159.483 27.434C159.867 26.8668 160.501 26.8501 160.868 27.4174ZM136.224 29.0192C136.207 27.4174 136.858 26.3996 138.193 25.8991C140.379 25.0815 142.414 26.6332 142.414 29.136C142.414 30.3373 142.214 30.9212 141.613 31.572C140.712 32.523 139.127 32.79 137.943 32.1893C136.775 31.5886 136.224 30.5709 136.224 29.0192ZM140.279 28.9691C140.178 28.3184 139.978 27.6677 139.811 27.4841C139.277 26.8835 138.477 27.2005 138.31 28.0848C138.176 28.7856 138.493 30.3039 138.86 30.7043C139.244 31.1382 139.861 31.0881 140.178 30.5709C140.429 30.2038 140.445 29.9869 140.279 28.9691ZM165.023 26.5331C164.906 26.9335 163.771 32.3728 163.771 32.573C163.771 32.7399 165.073 33.1737 165.59 33.1737C165.657 33.1737 165.824 32.6398 165.941 31.9891C166.141 30.9212 166.191 30.8211 166.508 30.9045C168.677 31.5219 170.112 30.8044 170.112 29.1192C170.112 27.7344 169.461 27.2505 166.825 26.6666L166.656 26.6296C165.409 26.3573 165.159 26.3029 165.078 26.3956C165.058 26.4188 165.048 26.4511 165.036 26.4915C165.032 26.5045 165.028 26.5184 165.023 26.5331ZM167.559 28.3517C168.11 28.552 168.26 28.7689 168.16 29.186C168.06 29.5697 167.576 29.7199 166.942 29.5864C166.508 29.4863 166.458 29.4196 166.541 29.0358C166.655 28.5179 166.709 28.2725 166.852 28.1999C166.98 28.1345 167.179 28.2094 167.559 28.3517ZM130.083 27.5755C130.446 27.4838 130.925 27.3627 131.319 27.2672C133.805 26.6666 135.073 27.2672 135.073 29.0192C135.073 30.3206 134.623 30.7043 132.287 31.4218C132.153 31.4718 132.17 31.8055 132.404 32.6398L132.687 33.7911L131.786 34.008C131.286 34.1081 130.819 34.1414 130.735 34.058C130.668 33.9913 130.268 32.5564 129.867 30.8879L129.1 27.8345L129.717 27.6677C129.812 27.6439 129.938 27.6121 130.083 27.5756L130.083 27.5755ZM133.238 29.1526C133.238 29.0859 133.121 28.9024 132.971 28.7689C132.704 28.4852 132.554 28.4685 131.936 28.6354C131.503 28.7689 131.486 28.8022 131.636 29.5197C131.736 30.0036 131.77 30.0369 132.287 29.9368C132.771 29.8367 133.238 29.453 133.238 29.1526ZM172.531 28.7021C171.396 29.3195 170.445 30.9713 170.445 32.3061C170.462 33.1403 170.962 34.2082 171.563 34.642C171.83 34.8255 172.414 35.0758 172.831 35.1926C173.499 35.3594 173.732 35.3427 174.366 35.0925C175.1 34.8255 175.784 34.1748 175.784 33.7577C175.784 33.6409 175.434 33.424 175.017 33.2571C174.299 32.9902 174.233 32.9902 174.082 33.2404C173.582 34.1247 172.447 33.791 172.447 32.7733C172.447 31.5719 173.298 30.0035 173.949 30.0035C174.399 30.0035 174.833 30.6042 174.75 31.0881C174.666 31.4551 174.733 31.5219 175.351 31.672C175.649 31.75 175.948 31.838 176.121 31.8889L176.194 31.9104L176.235 31.9223C176.752 32.0892 176.602 30.4374 176.035 29.5531C175.484 28.7188 173.415 28.2016 172.531 28.7021ZM122.609 32.523C122.459 30.8545 123.093 29.7532 124.495 29.2527C126.948 28.3684 129.067 30.2037 128.866 32.9901C128.783 34.2081 128.199 35.0591 127.098 35.5429C124.995 36.4773 122.826 35.0257 122.609 32.523ZM126.547 34.1915C127.181 33.8411 126.948 32.1726 126.113 31.038C125.663 30.4373 125.246 30.3539 124.845 30.8044C124.445 31.2382 124.495 32.1058 124.979 33.1403C125.429 34.1247 125.98 34.4918 126.547 34.1915ZM177.903 30.5876C177.52 31.3884 177.536 31.4552 178.204 31.6721C178.521 31.7722 178.788 31.889 178.788 31.939C178.788 31.9724 178.337 33.0236 177.787 34.2916C177.236 35.543 176.802 36.5775 176.836 36.5941C176.952 36.6943 178.504 37.345 178.537 37.3116C178.554 37.2782 179.005 36.2604 179.539 35.0424C180.406 33.0402 180.54 32.8233 180.857 32.9234C181.858 33.2405 181.891 33.2238 182.158 32.523L182.425 31.8556L180.356 30.9379C179.221 30.4207 178.27 30.0036 178.237 30.0036C178.204 30.0036 178.054 30.2705 177.903 30.5876ZM117.053 32.7065C117.053 32.6397 117.821 32.1892 118.772 31.7221C119.706 31.2382 120.557 30.8545 120.641 30.8545C120.741 30.8378 120.924 31.1381 121.091 31.5052L121.358 32.1559L120.457 32.573C119.957 32.8066 119.556 33.0736 119.556 33.1737C119.556 33.2571 120.04 34.3249 120.641 35.5096L121.725 37.6786L120.891 38.0957C120.44 38.3293 120.023 38.5129 119.973 38.5129C119.873 38.5129 117.053 32.9067 117.053 32.7065ZM182.075 35.2426C181.19 36.7443 180.456 38.0123 180.456 38.0624C180.456 38.1125 180.823 38.3794 181.291 38.6631L182.108 39.1636L182.709 38.1792C183.042 37.6286 183.359 37.1781 183.393 37.1781C183.443 37.1781 183.793 37.3616 184.177 37.5785C185.161 38.1458 185.812 38.2459 186.53 37.9456C187.831 37.4117 188.181 35.6931 187.214 34.6754C186.78 34.2249 184.094 32.5063 183.81 32.5063C183.743 32.5063 182.976 33.741 182.075 35.2426ZM185.512 35.2426C186.279 35.9601 185.629 36.6942 184.661 36.2271C184.044 35.9267 184.027 35.8266 184.394 35.2593C184.728 34.7421 184.961 34.7421 185.512 35.2426ZM112.549 35.3094C112.549 35.1926 112.899 34.8922 113.35 34.642C113.783 34.3917 114.2 34.1748 114.284 34.1748C114.401 34.1748 116.486 35.9768 119.223 38.4628C119.49 38.6964 119.323 38.8633 118.272 39.4305L117.721 39.7309L116.036 38.0957C115.118 37.2114 114.334 36.5107 114.301 36.544C114.267 36.5774 114.484 37.5785 114.801 38.7631C115.118 39.9645 115.385 40.9822 115.385 41.049C115.385 41.099 115.101 41.3326 114.768 41.5328C114.417 41.7498 113.316 42.6341 112.332 43.5184C111.347 44.386 110.446 45.1201 110.33 45.1368C110.096 45.1702 106.125 40.6652 106.125 40.3482C106.125 40.2314 106.909 39.4472 107.877 38.5796L109.629 37.0279L110.096 37.5285C110.363 37.8121 110.546 38.0957 110.513 38.1792C110.48 38.2459 109.996 38.7298 109.445 39.2303C108.761 39.8362 108.537 40.0347 108.55 40.2164C108.556 40.3049 108.618 40.3894 108.711 40.5151L108.711 40.5151L109.011 40.8988L109.963 40.0979L110.897 39.2804L111.297 39.7809C111.531 40.0479 111.698 40.3148 111.714 40.3816C111.714 40.4316 111.331 40.8321 110.847 41.2492C109.996 42 109.996 42.0167 110.296 42.3504C110.463 42.5339 110.663 42.6841 110.763 42.6841C110.847 42.6841 111.381 42.267 111.948 41.7664L112.982 40.8655L113.533 41.3994C113.967 41.8165 114.067 41.8665 114 41.5996C113.733 40.6485 112.549 35.4929 112.549 35.3094ZM145.168 35.3594C126.447 36.8778 110.98 44.9533 105.391 56.1155C103.839 59.1856 103.205 61.8385 103.205 65.1254C103.205 70.8817 105.574 76.1041 110.363 80.9094C117.788 88.3175 128.65 92.9393 142.748 94.6912C145.768 95.0583 155.229 95.1083 158.349 94.7746C172.614 93.2396 184.644 88.134 191.886 80.5423C196.457 75.7537 198.643 70.7816 198.643 65.2255C198.643 61.8051 198.076 59.3858 196.574 56.2824C195.323 53.7296 193.904 51.7941 191.468 49.3414C183.727 41.4995 171.029 36.4273 156.43 35.3427C153.844 35.1592 147.62 35.1592 145.168 35.3594ZM155.679 38.8466C165.49 39.514 173.482 41.5829 180.723 45.337C189.316 49.7919 194.589 55.8819 196.257 63.24C196.657 65.0754 196.641 68.3957 196.174 70.231C193.17 82.3944 176.435 92.0716 155.846 93.5733C136.825 94.9415 117.788 88.2341 109.478 77.222C104.64 70.815 104.073 63.4569 107.877 56.8163C111.648 50.209 119.64 44.7531 130.168 41.633C138.026 39.2804 147.22 38.2793 155.679 38.8466ZM158.282 45.02C158.632 45.02 162.87 42.7842 163.071 42.5006C163.421 42 164.339 42.0834 164.789 42.634L164.79 42.6356C165.14 43.1013 165.156 43.1233 165.04 48.0567L164.923 53.0288H165.39C165.824 53.0288 165.807 53.0788 164.773 54.1133C164.189 54.714 163.621 55.1978 163.521 55.1978C163.421 55.1978 163.121 55.5649 162.854 56.0321L162.37 56.8663H160.017H157.681L156.647 55.031C156.063 54.0299 155.596 53.1623 155.596 53.1122C155.596 52.8953 156.046 53.0621 156.23 53.3625C156.413 53.6795 156.614 53.6962 158.933 53.6962H161.436V50.1923C161.436 48.2569 161.369 46.6885 161.302 46.6885C161.135 46.6885 153.36 50.0422 152.276 50.5761C151.274 51.0766 150.207 52.328 149.689 53.6127C149.456 54.2134 149.256 54.764 149.256 54.8641C149.256 54.9475 149.656 55.031 150.123 55.0643L150.991 55.1144L151.458 56.1989L151.908 57.2834L150.657 57.3335C149.773 57.3669 149.422 57.4336 149.472 57.5838C149.506 57.7339 150.44 57.8007 152.743 57.8674C156.247 57.9508 156.263 57.9675 156.263 58.9853C156.263 59.953 156.03 60.0365 153.21 60.0365C151.441 60.0365 150.423 60.1199 149.856 60.2867C149.205 60.487 148.021 60.537 144.3 60.537C139.795 60.537 139.562 60.5203 139.245 60.2033C139.061 60.0198 138.911 59.6527 138.911 59.3857C138.911 58.685 139.445 58.368 140.613 58.368C141.364 58.368 141.58 58.3179 141.58 58.1177C141.58 57.9175 141.364 57.8674 140.663 57.8674H139.728L139.778 56.6661L139.829 55.4815L141.631 54.9809L143.416 54.4804V53.6795C143.416 53.0455 143.349 52.8786 143.082 52.8119C142.582 52.6784 142.682 52.3614 143.216 52.3614C143.466 52.3614 144.15 52.2112 144.734 52.0277C145.585 51.7607 146.052 51.7107 147.086 51.7941L148.388 51.9109L148.972 50.9932C149.289 50.476 149.823 49.8586 150.14 49.625C150.807 49.1078 158.049 45.02 158.282 45.02ZM158.249 46.1546C158.532 46.2547 161.352 44.7197 161.836 44.2024C162.12 43.9188 162.27 43.6852 162.17 43.7019C162.086 43.7019 161.269 44.0689 160.334 44.5028C158.833 45.2202 157.832 46.0211 158.249 46.1546ZM164.539 52.4782C164.589 52.4281 164.572 50.5928 164.506 48.3737C164.439 46.1712 164.339 44.3526 164.272 44.3526C164.205 44.3526 164.072 44.4527 163.972 44.5528C163.771 44.8031 163.171 51.3603 163.321 51.744C163.421 52.0277 164.422 52.6116 164.539 52.4782ZM145.401 55.8652C145.518 55.8652 145.585 55.2646 145.585 54.1967L145.585 53.9911V53.9911C145.586 53.1144 145.586 52.7225 145.403 52.5964C145.256 52.4944 144.988 52.5663 144.504 52.6962L144.384 52.7284L143.75 52.8953V54.1967V55.4981L144.484 55.6817C144.901 55.7818 145.318 55.8652 145.401 55.8652ZM148.588 56.5326V54.5304V52.5282H147.42H146.252V54.5304V56.5326H147.42H148.588ZM143.349 58.2011C143.75 58.2011 143.916 58.1344 143.883 57.9842C143.766 57.6672 142.748 57.6171 142.748 57.9342C142.748 58.1344 142.915 58.2011 143.349 58.2011ZM165.623 57.6672L156.713 63.6238L157.531 63.7573C157.829 63.8014 158.731 63.9183 159.824 64.06C160.385 64.1327 160.997 64.2119 161.602 64.2912C163.387 64.5248 165.99 64.9419 167.358 65.2255C172.731 66.2934 176.969 68.2455 177.353 69.8139C177.52 70.4479 176.936 71.5825 176.101 72.2499C172.581 75.103 161.235 77.9228 146.252 79.6413C142.798 80.0251 142.031 80.0585 136.575 80.0251L130.652 79.975L130.602 79.341L130.551 78.707L128.015 78.757L125.479 78.8071L125.429 80.4589L125.379 82.1107L128.916 82.0106C132.353 81.9272 132.437 81.9272 132.353 82.2442C132.203 82.7948 132.554 83.6791 133.088 84.1296C133.838 84.7636 135.04 84.747 135.757 84.0962C136.191 83.7125 136.308 83.4622 136.375 82.7614C136.425 82.1775 136.525 81.8938 136.675 81.8938C136.825 81.8938 136.908 82.0774 136.908 82.4111C136.908 83.6624 137.793 84.5634 138.994 84.5634C140.229 84.5634 141.08 83.7125 141.08 82.4778V81.8938H148.388C152.392 81.8938 156.647 81.8438 157.831 81.777L159.984 81.6769L159.867 82.1274C159.567 83.312 160.601 84.5634 161.886 84.5634C163.488 84.5634 164.372 83.0785 163.688 81.5101C163.588 81.2765 163.654 81.2264 164.188 81.2264C164.722 81.2264 164.789 81.2765 164.689 81.5101C164.439 82.094 164.405 82.7114 164.605 83.312C165.123 84.8804 167.625 85.0139 168.343 83.4956C168.693 82.7448 168.677 82.2776 168.259 81.4934C168.076 81.143 167.942 80.8427 167.976 80.8093C168.009 80.7926 168.593 80.7259 169.277 80.6591C170.512 80.559 170.529 80.559 170.078 80.8427C169.578 81.1597 169.11 81.9772 169.11 82.5612C169.11 83.6291 170.078 84.5634 171.196 84.5634C173.415 84.5634 174.099 81.6602 172.097 80.6925L171.546 80.4255L172.13 80.3254C172.248 80.3069 172.484 80.2679 172.793 80.2167C173.319 80.1296 174.058 80.0073 174.783 79.8916C179.405 79.1408 183.977 77.7393 186.546 76.3044C188.598 75.1531 190.667 73.1175 191.502 71.3823C192.386 69.5636 192.753 67.5614 192.503 65.8596C192.136 63.2734 191.068 61.3212 188.799 59.0187C186.129 56.3158 182.575 54.2635 177.87 52.7285C176.502 52.278 175.184 51.8609 174.95 51.8108C174.616 51.7441 172.931 52.7952 165.623 57.6672ZM173.615 57.3169C175.451 57.9175 179.038 59.6694 179.038 59.9531C179.038 60.0365 178.654 60.487 178.17 60.9208L177.303 61.7217L175.668 61.2045C173.499 60.5037 171.079 59.9364 169.044 59.6194C168.143 59.4859 167.375 59.3524 167.342 59.3191C167.308 59.2857 168.076 58.6517 169.06 57.9008L169.173 57.816L169.363 57.673C170.146 57.0825 170.553 56.7751 171.002 56.694C171.489 56.6059 172.025 56.7852 173.144 57.1595C173.29 57.2087 173.447 57.2612 173.615 57.3169ZM185.078 63.0732C186.429 64.3412 187.097 65.993 186.88 67.5948C186.763 68.3456 186.73 68.3957 186.313 68.3123C186.079 68.2789 185.595 68.1955 185.245 68.1287C184.661 68.0286 184.611 67.9786 184.694 67.6115C184.861 66.9441 184.511 65.9597 183.877 65.3423C183.56 65.042 182.659 64.458 181.874 64.0409L180.456 63.3068L181.407 62.339L182.342 61.388L183.326 61.8885C183.877 62.1722 184.661 62.7061 185.078 63.0732ZM184.894 70.6482C185.495 70.7983 185.946 70.9818 185.929 71.0653C185.762 71.4991 181.958 74.3856 181.541 74.3856C181.357 74.3856 180.456 73.7182 180.456 73.5847C180.456 73.518 180.79 73.251 181.207 73.0007C181.941 72.5335 183.626 70.815 183.626 70.5314C183.626 70.4833 183.626 70.4468 183.644 70.4234C183.699 70.3494 183.931 70.4072 184.894 70.6482ZM178.704 75.2198C178.971 75.4868 179.155 75.7537 179.105 75.7871C178.938 75.9707 177.253 76.6381 175.701 77.1553L174.032 77.7059L173.615 77.2721C173.382 77.0385 173.282 76.8216 173.365 76.7715C173.465 76.7382 174.516 76.271 175.701 75.7204C176.902 75.1865 177.953 74.736 178.054 74.736C178.137 74.7193 178.437 74.9362 178.704 75.2198ZM170.929 77.9562L171.296 78.3399L169.578 78.6069C166.858 79.024 165.607 79.1241 165.607 78.9239C165.607 78.8238 165.89 78.6903 166.241 78.6403C167.058 78.4901 169.995 77.7393 170.095 77.6392C170.262 77.4556 170.579 77.5724 170.929 77.9562ZM135.257 81.7103C135.524 81.9772 135.74 82.361 135.74 82.5612C135.74 83.0284 134.873 83.896 134.406 83.896C133.989 83.896 133.071 83.0451 133.071 82.6613C133.071 82.2108 133.438 81.5935 133.805 81.4266C134.389 81.1263 134.739 81.2097 135.257 81.7103ZM139.828 81.6435C140.663 82.4611 140.112 83.896 138.961 83.896C138.427 83.896 137.743 83.1952 137.743 82.6446C137.743 81.41 139.011 80.8093 139.828 81.6435ZM162.703 81.6102C163.037 81.8938 163.154 82.1608 163.154 82.5612C163.154 82.9617 163.037 83.2286 162.703 83.5123C162.169 83.9628 161.919 83.9794 161.268 83.6457C160.401 83.1952 160.401 81.8771 161.268 81.4433C161.869 81.143 162.186 81.1764 162.703 81.6102ZM167.358 81.6435C168.143 82.4111 167.742 83.6124 166.658 83.8293C165.473 84.0629 164.756 82.3276 165.707 81.5768C166.291 81.1096 166.858 81.143 167.358 81.6435ZM172.014 81.5768C172.998 82.361 172.264 84.0629 171.029 83.8293C169.444 83.5123 169.678 81.2932 171.296 81.2431C171.446 81.2264 171.763 81.3766 172.014 81.5768ZM121.341 54.7974C122.493 54.5472 128.015 54.0633 130.568 53.9799C131.327 53.9476 133.949 53.9309 136.493 53.9147L136.741 53.9131C140.229 53.8965 141.313 53.9465 140.829 54.0633C140.557 54.1375 139.251 54.4588 137.629 54.8578L137.62 54.8599C137.055 54.9989 136.452 55.1474 135.84 55.298C133.455 55.882 131.419 56.4493 131.302 56.5494C130.284 57.3836 131.552 58.6684 134.622 59.9364C138.493 61.5382 140.796 62.022 149.672 63.0398C155.295 63.6738 155.629 63.7239 155.929 63.8073C156.063 63.8574 152.075 66.5937 146.752 70.1142L137.359 76.3544L136.424 75.7371C128.883 70.815 123.961 67.3946 121.058 65.0754C118.838 63.2901 118.038 62.5226 117.12 61.3046C115.652 59.3691 115.618 57.6673 117.003 56.5994C117.871 55.932 119.873 55.0978 121.341 54.7974ZM132.954 55.1979C133.238 55.1979 133.404 55.1145 133.404 54.9476C133.404 54.664 132.47 54.6473 130.785 54.8976C129.667 55.0644 129.55 55.1645 130.067 55.4982C130.334 55.6484 130.601 55.6484 131.436 55.4482C132.02 55.3147 132.687 55.1979 132.954 55.1979ZM126.68 56.4326C127.248 56.2157 127.365 56.0989 127.214 55.932C126.997 55.6651 126.714 55.6651 125.98 55.882C125.246 56.0989 123.811 56.9164 123.811 57.1167C123.811 57.2001 124.128 57.3002 124.511 57.3336C125.045 57.3669 125.312 57.3002 125.596 57.0499C125.796 56.8664 126.28 56.5827 126.68 56.4326ZM127.682 62.2056C127.965 62.1889 128.616 61.5215 128.466 61.388C128.382 61.3213 127.665 60.9041 126.881 60.487C125.496 59.7362 125.429 59.7195 125.162 60.0198C124.912 60.2868 124.912 60.3369 125.179 60.5538C125.763 61.0376 127.531 62.2056 127.682 62.2056ZM135.24 65.2089C135.24 65.1588 134.372 64.6916 133.321 64.1577C132.27 63.6405 131.369 63.2067 131.336 63.2067C131.309 63.2067 131.167 63.3121 130.983 63.4475L130.983 63.4476L130.983 63.4476C130.936 63.4826 130.886 63.5195 130.835 63.5571L130.385 63.9241L132.32 64.9753L134.255 66.0431L134.739 65.676C135.023 65.4758 135.24 65.2756 135.24 65.2089ZM143.749 67.6282C142.781 67.478 141.313 67.1777 140.479 66.9441C140.225 66.8795 139.985 66.8178 139.772 66.7631C139.27 66.6341 138.917 66.5437 138.894 66.5437C138.76 66.5603 137.392 67.5781 137.442 67.6282L137.515 67.6651L137.515 67.6651C137.812 67.8168 138.977 68.4122 140.345 69.0965L143.199 70.5314L145.001 69.3301L146.803 68.1287L146.152 68.0119C145.979 67.9872 145.626 67.9298 145.197 67.86C144.758 67.7886 144.238 67.7041 143.749 67.6282ZM122.81 69.7138C121.275 70.1142 120.207 70.5814 118.922 71.4157C117.904 72.0831 117.854 72.1498 116.887 74.152C115.952 76.0708 115.886 76.3044 115.886 77.3889C115.886 78.0563 115.952 78.5568 116.052 78.5568C116.152 78.5568 116.219 78.8572 116.219 79.2242C116.219 79.5913 116.152 79.8916 116.052 79.8916C115.952 79.8916 115.886 80.3922 115.886 81.0596V82.2275H117.788C117.916 82.2275 118.037 82.2278 118.149 82.2281L118.151 82.2281H118.153C119.099 82.2306 119.493 82.2317 119.687 82.0351C119.826 81.8944 119.863 81.6526 119.927 81.2378L119.927 81.2373C119.931 81.2085 119.936 81.179 119.94 81.1485C119.945 81.1144 119.951 81.0792 119.957 81.0429C120.174 79.7748 121.308 79.2242 123.627 79.2242H124.895V74.3022V69.3801L124.445 69.3968C124.178 69.3968 123.46 69.5303 122.81 69.7138ZM124.729 71.5158C124.729 71.7994 124.512 71.8328 122.192 71.9329C120.808 71.9996 119.64 72.0163 119.606 71.983C119.556 71.9496 123.41 71.3489 124.528 71.2321C124.628 71.2321 124.729 71.3489 124.729 71.5158ZM121.225 74.3022V75.7204H119.139C117.988 75.7204 117.053 75.6703 117.053 75.5869C117.053 75.5202 117.287 74.8861 117.587 74.1687L118.121 72.8839H119.673H121.225V74.3022ZM120.39 82.1942C120.39 81.1597 120.974 80.3755 121.975 80.0752C123.06 79.7582 124.178 80.3254 124.628 81.4266C124.945 82.1775 124.945 82.2275 124.645 82.9783C124.295 83.9294 123.61 84.3966 122.593 84.3966C121.241 84.3966 120.39 83.5456 120.39 82.1942ZM122.576 83.5623C123.761 83.5623 124.361 82.1608 123.56 81.3099C122.709 80.3922 121.224 80.9928 121.224 82.2442C121.224 83.0284 121.792 83.5623 122.576 83.5623ZM189.216 37.4951C186.696 38.6463 186.096 41.8165 188.114 43.3181C189.766 44.5361 191.735 44.0189 193.003 42.0334C193.537 41.1824 193.637 39.831 193.237 39.0468C192.72 38.0457 191.351 37.1781 190.35 37.1781C190.1 37.1781 189.583 37.3282 189.216 37.4951ZM191.485 39.1969C191.852 39.564 191.819 39.9144 191.268 40.7987C190.851 41.5161 189.866 42.3504 189.466 42.3504C189.015 42.3504 188.598 41.6496 188.732 41.1157C188.849 40.5985 190.05 39.1969 190.534 39.0134C191.051 38.7965 191.101 38.8132 191.485 39.1969ZM198.876 43.4516C198.292 42.8676 198.176 42.3838 198.476 41.6163C198.559 41.3827 198.709 41.1825 198.793 41.1825C199.01 41.1825 199.193 41.6997 199.16 42.1502C199.11 42.6507 199.577 43.1847 200.061 43.1847C200.261 43.1847 200.561 43.3181 200.712 43.5017C200.962 43.7853 200.962 43.8187 200.728 43.9188C200.061 44.1691 199.444 44.0189 198.876 43.4516ZM193.804 43.7019C192.469 44.8031 191.368 45.7541 191.352 45.8209C191.318 45.8876 191.552 46.238 191.869 46.6051C192.386 47.2057 192.469 47.2558 192.82 47.0722C193.22 46.8553 196.157 46.3047 196.257 46.4215C196.29 46.4549 195.773 46.9054 195.106 47.4393C194.613 47.8336 194.147 48.2097 193.904 48.4063C193.818 48.4759 193.759 48.5231 193.738 48.5405C193.654 48.6239 193.788 48.941 194.071 49.2913L194.071 49.2915C194.338 49.6418 194.605 49.9921 194.655 50.0755C194.772 50.2424 199.811 46.2547 199.811 45.9877C199.811 45.9043 199.577 45.5372 199.294 45.1868C198.776 44.5528 198.743 44.5361 198.326 44.7697C197.925 44.9699 194.972 45.5706 194.855 45.4538C194.822 45.4371 195.439 44.9032 196.224 44.2859L197.625 43.1513L197.024 42.4171C196.707 42.0167 196.39 41.683 196.324 41.6997C196.274 41.6997 195.139 42.6007 193.804 43.7019ZM101.103 45.921C101.153 45.7875 101.803 44.9366 102.554 44.0189C103.305 43.1013 103.972 42.3504 104.022 42.3504C104.072 42.3671 104.323 42.534 104.59 42.7342L105.04 43.1179L104.106 44.2525L103.171 45.3871L103.639 45.7708L104.123 46.1546L104.923 45.2536C105.424 44.703 105.941 44.3026 106.258 44.2191C107.743 43.8187 109.145 45.2202 108.661 46.6218C108.461 47.2391 106.225 50.209 106.008 50.1423C105.941 50.1256 104.79 49.2246 103.455 48.1401C101.82 46.8053 101.036 46.0712 101.103 45.921ZM106.659 47.1557C106.942 46.7553 106.992 46.555 106.859 46.3215C106.592 45.8042 106.091 45.921 105.474 46.6385C105.174 47.0055 105.174 47.0222 105.557 47.3392C106.091 47.7897 106.225 47.773 106.659 47.1557Z" fill="#2E43A0"></path>
</svg>
