<?xml version="1.0" encoding="UTF-8"?>
<svg xmlns="http://www.w3.org/2000/svg" id="Слой_1" data-name="Слой 1" viewBox="0 0 302 120">
  <defs>
    <style>.cls-1{fill:#39795c;}</style>
  </defs>
  <path class="cls-1" d="M31,45H44.92v3.15H34.64v6h2.84c4.63,0,8.82,1.33,8.82,6.61s-3.79,6.83-8.55,6.83H31Zm3.64,19.49h2.85c2.74,0,5.09-.57,5.09-3.72s-2.83-3.49-5.51-3.49H34.64Zm24-14.32c5.23,0,7,4.29,7,8.82s-1.88,8.92-7.11,8.92a6.22,6.22,0,0,1-5-2.18A20.89,20.89,0,0,1,53.65,68v7h-3.6V50.47h3l.38,2.17A6,6,0,0,1,58.62,50.17Zm-.71,3c-3.72,0-4.26,2.71-4.26,5.84s.55,5.92,4.29,5.92c3.3,0,4.05-3.32,4.05-6S61.26,53.16,57.91,53.16ZM67,67.6l4.86-7a4.82,4.82,0,0,1-3.67-4.93c0-3.7,3-5.22,6.39-5.22h7.82V67.6H78.81V61.06H75.37L71.1,67.6Zm4.69-11.9c0,2.06,1.87,2.52,3.6,2.52h3.53V53.36h-4C73.2,53.36,71.68,53.88,71.68,55.7Zm19.06,1.62h8.18V50.47h3.56V67.6H98.92V60.26H90.74V67.6h-3.6V50.47h3.6ZM114.3,67.91c-5.53,0-8-3.63-8-8.78,0-5.31,2.65-9,8.3-9a10.68,10.68,0,0,1,4.91,1.08l-1.08,2.9a11.34,11.34,0,0,0-3.88-.91c-3.61,0-4.58,2.76-4.58,5.86s1,5.74,4.42,5.74a9.5,9.5,0,0,0,4.72-1.23v3.22A9.22,9.22,0,0,1,114.3,67.91ZM137,50.47l-7.35,8.26,7.49,8.37L145.65,45h3.56q4.33,11.3,8.7,22.6h-3.82L151.59,61h-8.44L140.7,67.6h-7.4l-7.12-8v8h-3.6V50.47h3.6v7.67l6.71-7.67Zm13.59,7.39c-1.08-3-2.2-5.85-3.13-8.86-.89,3-2,5.88-3.12,8.86Zm20.53-4.43h-7.51V67.6H160V50.47h11.11Zm11.36-3.26c5.25,0,7,4.29,7,8.82s-1.89,8.92-7.11,8.92a6.2,6.2,0,0,1-5-2.18c.06.74.14,1.49.14,2.24v7h-3.6V50.47h3l.38,2.17A6,6,0,0,1,182.43,50.17Zm-.7,3c-3.83,0-4.27,2.92-4.26,5.84s.54,5.92,4.28,5.92c3.32,0,4.05-3.32,4.05-6S185.07,53.16,181.73,53.16ZM208.53,59c0,5.12-2.68,8.91-8.16,8.91s-8.06-4-8.06-8.91c0-5.13,2.65-8.83,8.15-8.83C205.81,50.17,208.53,54,208.53,59ZM196,59c0,3,.88,5.92,4.45,5.92s4.43-3,4.43-5.92-.88-5.81-4.46-5.81S196,56,196,59Zm29,8.6-5.71-9.17-5.78,9.17h-3.93l7.61-11.74L210.05,45h4.07l5.28,8.38L224.66,45h4l-7.12,10.89,7.67,11.71Zm9.5-4.34,8.4-12.79H247V67.6h-3.42c0-4.26-.11-8.55.11-12.81L235.31,67.6h-4.16V50.47h3.46ZM271,67.6h-3.31V57.19c0-.63,0-1.28.06-1.91l-5,12.32H260l-4.89-12.33c0,.68,0,1.35.05,2V67.6h-3.33V50.47h4.64l5,12.59,5-12.59H271Z"></path>
</svg>
