<?xml version="1.0" encoding="UTF-8"?>
<svg xmlns="http://www.w3.org/2000/svg" id="Слой_1" data-name="Слой 1" viewBox="0 0 302 120">
  <defs>
    <style>.cls-1,.cls-2{fill:#2c323a;}.cls-2{fill-rule:evenodd;}</style>
  </defs>
  <path class="cls-1" d="M15,35H25l-5,4.88Z"></path>
  <path class="cls-1" d="M53.14,73.5A19.94,19.94,0,0,1,35,85c-.45,0-.88,0-1.31,0L49.24,69.69Z"></path>
  <path class="cls-1" d="M25.83,82.82a20.6,20.6,0,0,1-5.65-4.23L39.25,59.92l5,4.89Z"></path>
  <path class="cls-1" d="M16.35,72.58A18.53,18.53,0,0,1,15,65.4V64.12l14.28-14,5,4.9Z"></path>
  <path class="cls-1" d="M15,54.36V44.59l4.3-4.21,5,4.88Z"></path>
  <path class="cls-1" d="M35,35h10L30,49.65l-5-4.88Z"></path>
  <path class="cls-1" d="M54.91,35v9.75L40,59.43l-5-4.9Z"></path>
  <path class="cls-1" d="M54.91,54.55v9.77l-5,4.86-5-4.88Z"></path>
  <path class="cls-1" d="M279.5,51.56l-3.44,11.09h6.82l.22.73h-7.26l-1.35,4.33h-.74l5.14-16.66h3l3.54,11.6h-2.57Z"></path>
  <path class="cls-1" d="M283.1,63.38h2.57L287,67.71h-2.59Z"></path>
  <path class="cls-1" d="M189.82,59.11V65.6a7.94,7.94,0,0,1-6.14,2.4c-5.88,0-8.25-3.85-8.25-8.61s2.37-8.61,8.25-8.61A8.32,8.32,0,0,1,189,52.42l-.49.47a7.83,7.83,0,0,0-4.79-1.48c-4.07,0-5.71,3.58-5.71,8s1.64,8,5.71,8a6.64,6.64,0,0,0,3.55-.88V59.83h-3.14v-.72Z"></path>
  <path class="cls-1" d="M108.8,63.38h-7.26l-1.35,4.33h-.74l5.14-16.66h3l3.54,11.6h-2.57l-3.4-11.09-3.42,11.09h6.82Z"></path>
  <path class="cls-1" d="M108.8,63.38h2.57l1.33,4.33h-2.59Z"></path>
  <path class="cls-1" d="M88.24,51.78H80.15V59H77.58v-8H88.24Z"></path>
  <path class="cls-1" d="M80.15,59.75V59h7.38v.73Z"></path>
  <path class="cls-1" d="M80.15,59.75v8H77.58v-8Z"></path>
  <path class="cls-1" d="M136.43,65.62V51.05h.75V67.71h-2.4L126,51.85V67.71h-.74V51.05h3.17Z"></path>
  <path class="cls-1" d="M156.18,51.56l-3.43,11.09h6.81l.23.73h-7.26l-1.33,4.33h-.76l5.16-16.66h3l3.53,11.6h-2.59Z"></path>
  <path class="cls-1" d="M159.79,63.38h2.59l1.31,4.33h-2.57Z"></path>
  <path class="cls-2" d="M210.45,50.78c5.6,0,8.23,3.85,8.23,8.61S216.12,68,210.45,68c-5.88,0-8.25-3.85-8.25-8.61S204.57,50.78,210.45,50.78Zm0,.63c3.88,0,5.69,3.58,5.69,8s-1.78,8-5.69,8c-4.07,0-5.71-3.58-5.71-8S206.38,51.41,210.45,51.41Z"></path>
  <path class="cls-1" d="M238.58,51.78H234.1v8h-2.59V51.05h7.07c4.35,0,6.06,2.11,6.06,4.73,0,2.31-1.44,4.24-4.76,4.64l4.55,7.29h-2.57l-4.56-7.22h-3.2v-.73h4.48a3.8,3.8,0,0,0,3.61-4A3.86,3.86,0,0,0,238.58,51.78Z"></path>
  <path class="cls-1" d="M234.1,60.49v7.22h-2.59V60.49Z"></path>
  <path class="cls-1" d="M258.37,51.05H261V67.71h-2.58Z"></path>
  <path class="cls-2" d="M144.4,77a2.76,2.76,0,0,0-.88,2.2,2.61,2.61,0,0,0,.78,1.92,3.33,3.33,0,0,0,4.52,0,2.72,2.72,0,0,0,.77-2,2.81,2.81,0,0,0-.39-1.55,2.61,2.61,0,0,0-1.11-1,3.14,3.14,0,0,0-1.51-.35A3.11,3.11,0,0,0,144.4,77Zm.62,3.8a2.07,2.07,0,0,1-.64-1.6,2.24,2.24,0,0,1,.63-1.76,2.17,2.17,0,0,1,1.57-.57,2.32,2.32,0,0,1,1.08.25,1.77,1.77,0,0,1,.76.69,2.66,2.66,0,0,1,.31,1.3,2.22,2.22,0,0,1-.62,1.69,2.15,2.15,0,0,1-1.55.57A2.18,2.18,0,0,1,145,80.78Z"></path>
  <path class="cls-1" d="M77.58,76.31v5.58h.78V77.51l3.22,4.38h.83V76.31h-.78v4.4l-3.22-4.4Z"></path>
  <path class="cls-2" d="M86.38,77a2.78,2.78,0,0,0-.85,2.2,2.67,2.67,0,0,0,.76,1.92,3.13,3.13,0,0,0,4.36,0,2.79,2.79,0,0,0,.76-2A2.9,2.9,0,0,0,91,77.56a2.55,2.55,0,0,0-1.06-1,3.05,3.05,0,0,0-1.48-.35A2.94,2.94,0,0,0,86.38,77Zm.6,3.8a2,2,0,0,1-.6-1.6A2.33,2.33,0,0,1,87,77.42a2.07,2.07,0,0,1,1.52-.57,2.17,2.17,0,0,1,1,.25,1.74,1.74,0,0,1,.73.69,2.77,2.77,0,0,1,.31,1.3A2.18,2.18,0,0,1,90,80.78a2,2,0,0,1-1.5.57A2.05,2.05,0,0,1,87,80.78Z"></path>
  <path class="cls-2" d="M94.36,76.31v5.58h2.35A4.08,4.08,0,0,0,98,81.73a1.66,1.66,0,0,0,.74-.56,1.62,1.62,0,0,0,.27-.9,1.26,1.26,0,0,0-.31-.86,1.6,1.6,0,0,0-.84-.49,1.65,1.65,0,0,0,.64-.5,1.16,1.16,0,0,0,.22-.7,1.29,1.29,0,0,0-.26-.76,1.89,1.89,0,0,0-.65-.5,3.47,3.47,0,0,0-1.13-.15Zm2.16,2.34H95.19V77h1.23a4,4,0,0,1,.93.07.76.76,0,0,1,.41.29.8.8,0,0,1,.16.49.78.78,0,0,1-.18.52,1,1,0,0,1-.48.27A3.36,3.36,0,0,1,96.52,78.65Zm.19,2.59H95.19V79.31h1.42a3.25,3.25,0,0,1,.91.1.9.9,0,0,1,.47.32.83.83,0,0,1,.17.54.93.93,0,0,1-.17.58,1.07,1.07,0,0,1-.54.32A2.64,2.64,0,0,1,96.71,81.24Z"></path>
  <path class="cls-1" d="M102,76.31v5.58h3.85v-.65h-3V76.31Z"></path>
  <path class="cls-1" d="M108.82,76.31v5.58h4.59v-.65h-3.76V79.33H113v-.66h-3.39V77h3.6v-.65Z"></path>
  <path class="cls-1" d="M117,80l-.77,0a1.69,1.69,0,0,0,.69,1.38,2.81,2.81,0,0,0,1.81.53,3.16,3.16,0,0,0,1.26-.22,1.77,1.77,0,0,0,.81-.59,1.41,1.41,0,0,0,.31-.88,1.25,1.25,0,0,0-.29-.83,2,2,0,0,0-.85-.57,10.9,10.9,0,0,0-1.28-.32,3.23,3.23,0,0,1-1.19-.38.61.61,0,0,1-.27-.52.68.68,0,0,1,.36-.59,2,2,0,0,1,1.07-.24,1.79,1.79,0,0,1,1,.27,1.05,1.05,0,0,1,.43.81l.78-.06a1.51,1.51,0,0,0-.31-.88,1.78,1.78,0,0,0-.79-.59,3.21,3.21,0,0,0-1.2-.2,2.67,2.67,0,0,0-1.58.43,1.31,1.31,0,0,0-.59,1.12,1.18,1.18,0,0,0,.21.67,1.72,1.72,0,0,0,.57.49,4.76,4.76,0,0,0,1.24.39,12.24,12.24,0,0,1,1.26.32,1.23,1.23,0,0,1,.45.31.78.78,0,0,1-.26,1.13,2.07,2.07,0,0,1-1.12.25,2.73,2.73,0,0,1-.92-.15,1.42,1.42,0,0,1-.6-.41A1.3,1.3,0,0,1,117,80Z"></path>
  <path class="cls-1" d="M124.67,80l-.78,0a1.71,1.71,0,0,0,.71,1.38,2.81,2.81,0,0,0,1.81.53,3.09,3.09,0,0,0,1.24-.22,1.88,1.88,0,0,0,.83-.59,1.52,1.52,0,0,0,.29-.88,1.24,1.24,0,0,0-.27-.83,2,2,0,0,0-.85-.57,12.43,12.43,0,0,0-1.27-.32,3.3,3.3,0,0,1-1.21-.38.6.6,0,0,1-.26-.52.68.68,0,0,1,.36-.59,2,2,0,0,1,1-.24,1.83,1.83,0,0,1,1.06.27,1,1,0,0,1,.43.81l.78-.06a1.65,1.65,0,0,0-.3-.88,1.78,1.78,0,0,0-.81-.59,3.09,3.09,0,0,0-1.19-.2,2.74,2.74,0,0,0-1.59.43,1.35,1.35,0,0,0-.58,1.12,1.25,1.25,0,0,0,.2.67,1.72,1.72,0,0,0,.57.49,5.47,5.47,0,0,0,1.25.39,12.68,12.68,0,0,1,1.27.32,1.06,1.06,0,0,1,.43.31.64.64,0,0,1,.16.43.84.84,0,0,1-.4.7,2.14,2.14,0,0,1-1.14.25,2.48,2.48,0,0,1-.89-.15,1.41,1.41,0,0,1-.63-.41A1.47,1.47,0,0,1,124.67,80Z"></path>
  <path class="cls-1" d="M131.86,76.31v5.58h4.59v-.65h-3.76V79.33h3.4v-.66h-3.4V77h3.6v-.65Z"></path>
  <path class="cls-2" d="M152.66,76.31v5.58h2.42a4.16,4.16,0,0,0,1.31-.16,1.62,1.62,0,0,0,.76-.56,1.37,1.37,0,0,0,.29-.9,1.26,1.26,0,0,0-.31-.86,1.66,1.66,0,0,0-.86-.49,1.89,1.89,0,0,0,.66-.5,1.16,1.16,0,0,0,.22-.7,1.29,1.29,0,0,0-.26-.76,1.86,1.86,0,0,0-.71-.5,3.41,3.41,0,0,0-1.14-.15Zm2.21,2.34h-1.36V77h1.26a4.31,4.31,0,0,1,1,.07.94.94,0,0,1,.43.29.79.79,0,0,1,.15.49.73.73,0,0,1-.17.52,1.1,1.1,0,0,1-.5.27A3.74,3.74,0,0,1,154.87,78.65Zm.21,2.59h-1.57V79.31H155a3.52,3.52,0,0,1,1,.1,1.1,1.1,0,0,1,.49.32.83.83,0,0,1,.17.54.94.94,0,0,1-.19.58,1.07,1.07,0,0,1-.54.32A3,3,0,0,1,155.08,81.24Z"></path>
  <path class="cls-1" d="M160.58,76.31v5.58h3.95v-.65h-3.12V76.31Z"></path>
  <path class="cls-1" d="M167.74,76.31v5.58h.85V76.31Z"></path>
  <path class="cls-1" d="M175.05,79v.66h1.87v1a3.38,3.38,0,0,1-.83.4,3,3,0,0,1-1,.17,2.55,2.55,0,0,1-1.69-.56,2.09,2.09,0,0,1-.64-1.67,2.54,2.54,0,0,1,.3-1.25,1.91,1.91,0,0,1,.81-.76,2.53,2.53,0,0,1,1.19-.23,2.21,2.21,0,0,1,.84.13,1.5,1.5,0,0,1,.62.36,1.83,1.83,0,0,1,.38.71l.76-.17a1.92,1.92,0,0,0-.5-.95,2.34,2.34,0,0,0-.86-.54,3.8,3.8,0,0,0-1.23-.18,4,4,0,0,0-1.64.32,2.84,2.84,0,0,0-1.12,1,3,3,0,0,0-.41,1.59,2.6,2.6,0,0,0,1.57,2.53,3.92,3.92,0,0,0,1.65.34,4.9,4.9,0,0,0,1.37-.22,5.92,5.92,0,0,0,1.27-.66V79Z"></path>
  <path class="cls-1" d="M181,76.31v5.58h4.73v-.65h-3.9V79.33h3.52v-.66h-3.52V77h3.74v-.65Z"></path>
</svg>
