<?xml version="1.0" encoding="UTF-8"?>
<svg xmlns="http://www.w3.org/2000/svg" width="302" height="120" viewBox="0 0 302 120" fill="none">
  <path d="M135.865 58.1712H132.214V53.2673H127.891V66.5366H132.214V61.8251H135.865V66.5366H140.189V53.2673H135.865V58.1712ZM175.547 58.1712H171.895V53.2673H167.572V66.5366H171.895V61.8251H175.547V66.5366H179.87V53.2673H175.547V58.1712ZM240.882 57.2096H238.864V53.3635H234.541V66.6327H240.882C243.668 66.6327 245.878 65.0942 245.878 62.402V61.4404C245.974 58.652 243.668 57.2096 240.882 57.2096ZM240.498 63.2673H238.864V60.3827H240.306C241.554 60.3827 241.746 61.2481 241.746 61.8251C241.746 63.075 240.786 63.2673 240.498 63.2673ZM213.307 61.5365H218.111V58.3635H213.307V56.7289H218.591V53.2673H209.079V66.5366H218.975V63.075H213.307V61.5365ZM208.022 53.2673H203.41L201.104 58.2674H200.048V53.2673H195.724V66.5366H200.048V61.8251H201.104L203.41 66.5366H208.31L204.659 59.8058L208.022 53.2673ZM148.74 53.075H146.626C143.84 53.075 141.63 55.0942 141.63 58.0751V61.8251C141.63 64.9019 143.936 66.825 146.626 66.825H148.74C151.526 66.825 153.736 64.8058 153.736 61.8251V58.0751C153.736 54.9019 151.526 53.075 148.74 53.075ZM149.413 62.1135C149.413 62.9789 148.74 63.7482 147.779 63.7482H147.395C146.53 63.7482 145.762 62.9789 145.762 62.1135V57.7866C145.762 56.9212 146.434 56.152 147.395 56.152H147.779C148.644 56.152 149.413 56.9212 149.413 57.7866V62.1135ZM222.146 60.2866C222.146 62.3058 221.57 62.5943 220.801 62.9789C220.512 63.1712 219.552 63.075 219.552 63.075V66.5366H221.185C224.74 66.5366 226.086 64.4212 226.182 59.7096C226.182 58.652 226.182 57.5942 226.182 56.6327H228.584V66.4404H232.907V53.2673H222.146V60.2866ZM161.518 53.2673H155.178V66.5366H159.501V63.2673H161.518C164.305 63.2673 166.515 61.7288 166.515 59.0366V57.4981C166.611 54.8058 164.305 53.2673 161.518 53.2673ZM162.384 58.652C162.384 59.1327 162.095 60.0943 160.943 60.0943H159.501V56.5366H161.135C161.518 56.5366 162.48 56.9212 162.48 57.8828V58.652H162.384ZM185.827 59.9981V53.2673H181.792V66.5366H185.54L189.959 59.8058V66.5366H193.994V53.2673H190.247L185.827 59.9981Z" fill="#5A5A59"></path>
  <path d="M76.1035 66.4403L95.9923 79.9019V53.4596L76.1035 39.998V66.4403Z" fill="#0061A3"></path>
  <path d="M76.103 39.998C65.0537 39.998 56.1182 48.9404 56.1182 59.998C56.1182 71.0558 65.0537 79.998 76.103 79.998V39.998Z" fill="#0089C5"></path>
  <path d="M95.9912 79.9019C107.041 79.9019 115.976 70.9596 115.976 59.9019C115.976 48.8442 107.041 39.998 95.9912 39.998V79.9019Z" fill="#0089C5"></path>
</svg>
