<?xml version="1.0" encoding="UTF-8"?>
<svg xmlns="http://www.w3.org/2000/svg" id="Слой_1" data-name="Слой 1" viewBox="0 0 303 120">
  <defs>
    <style>.cls-1{fill:#0c4da1;fill-rule:evenodd;}</style>
  </defs>
  <path class="cls-1" d="M111.8,79.78h79.39l-1.09,4.78A11.75,11.75,0,0,0,180.39,95h-3.62a11.74,11.74,0,0,0-23.38,0h-3.78a11.74,11.74,0,0,0-23.38,0H122.6a11.75,11.75,0,0,0-9.7-10.44Zm76.29-11.36v9.87h-2.51V72l-1.9,6.3h-2.51l-1.88-6.18v6.18h-2.5V68.42h3.89l1.74,5.73,1.73-5.73Zm-36.45,10.2a5.27,5.27,0,0,0,5.16-4.36h-3.24c-.28,1.18-1,2-1.92,2-1.12,0-2-1.34-2-3s.9-3,2-3c.89,0,1.64.85,1.92,2h3.24a5.25,5.25,0,1,0-5.16,6.3Zm-37-10.2h9.27v2.63h-3.13v7.24h-3V71.05h-3.11Zm77.84-1.68V66a41,41,0,1,0-82,0v.72h5.43V51.19a38.53,38.53,0,0,1,6-9.91V66.74h4.23V37a38.42,38.42,0,0,1,6-4.31V66.74h4.23V36.48l6,5.44V66.74h4.23v-21l6,5.46V66.74H157V55l6,5.46v6.25Z"></path>
</svg>
