<?xml version="1.0" encoding="UTF-8"?>
<svg xmlns="http://www.w3.org/2000/svg" id="Слой_1" data-name="Слой 1" viewBox="0 0 302 120">
  <defs>
    <style>.cls-1{fill:#ce1443;}.cls-2{fill:#77787b;fill-rule:evenodd;}</style>
  </defs>
  <path class="cls-1" d="M99.62,61.46h5.72a13.22,13.22,0,0,1,2.73.2,2.92,2.92,0,0,1,1.66,1,2.62,2.62,0,0,1,.6,1.68,3.12,3.12,0,0,1-.47,1.57,3.65,3.65,0,0,1-1.43,1.31,11,11,0,0,1-2.89,1,5.94,5.94,0,0,1,2.83,1.45,3,3,0,0,1,.79,2,3.73,3.73,0,0,1-.77,2.17,4.4,4.4,0,0,1-2,1.55,14.27,14.27,0,0,1-4.64.5h-6l.13-.37a3.65,3.65,0,0,0,1.25-.16,1.33,1.33,0,0,0,.6-.5,5.59,5.59,0,0,0,.53-1.4l2.54-8.87a8.51,8.51,0,0,0,.39-1.84.74.74,0,0,0-.31-.62,2.69,2.69,0,0,0-1.36-.29Zm3.26,6.37a5.08,5.08,0,0,0,2.25-.45A3.13,3.13,0,0,0,106.45,66a4.17,4.17,0,0,0,.49-1.87,1.78,1.78,0,0,0-.51-1.34,1.8,1.8,0,0,0-1.37-.5l-.59,0Zm-.23.81-1.83,6.41.79,0a3.68,3.68,0,0,0,3.25-1.33,5,5,0,0,0,.91-2.84,2.31,2.31,0,0,0-.36-1.28,1.81,1.81,0,0,0-.9-.77A5.46,5.46,0,0,0,102.65,68.64Zm13.21,7.56a4.93,4.93,0,0,1-2.8-.71,4.39,4.39,0,0,1-1.61-1.94,6.1,6.1,0,0,1-.53-2.4,9.61,9.61,0,0,1,1.34-4.75,10.67,10.67,0,0,1,3.63-3.83,8.43,8.43,0,0,1,4.51-1.44,4.94,4.94,0,0,1,2.47.66,4.6,4.6,0,0,1,1.82,1.84,4.8,4.8,0,0,1,.65,2.38,10,10,0,0,1-1.7,5.38,11.23,11.23,0,0,1-3.84,3.91A7.94,7.94,0,0,1,115.86,76.2ZM120.06,62a3.07,3.07,0,0,0-1.42.3,4.66,4.66,0,0,0-1.23,1,9.29,9.29,0,0,0-1.29,2,18.5,18.5,0,0,0-1.24,3.6,15.83,15.83,0,0,0-.58,3.8,3,3,0,0,0,.56,2,1.83,1.83,0,0,0,1.44.67,2.79,2.79,0,0,0,2-.78,11.08,11.08,0,0,0,2.64-4.52,16.44,16.44,0,0,0,1-5.31,3.3,3.3,0,0,0-.54-2.11A1.71,1.71,0,0,0,120.06,62Zm9.2-.85h.4a.83.83,0,0,0,.66.45,4.1,4.1,0,0,0,.72-.14,9.15,9.15,0,0,1,2.14-.31,3.23,3.23,0,0,1,2.49.85,2.76,2.76,0,0,1,.77,1.9,3.5,3.5,0,0,1-1,2.4,7.57,7.57,0,0,1-3,1.83,3.16,3.16,0,0,1,2.21,1.18,3.39,3.39,0,0,1,.68,2,4.53,4.53,0,0,1-1.6,3.41,5.77,5.77,0,0,1-8.77-1.28l.36-.4a4.85,4.85,0,0,0,3.54,2,3.06,3.06,0,0,0,2.41-1.13,3.82,3.82,0,0,0,1-2.63,2.45,2.45,0,0,0-.8-2,3.17,3.17,0,0,0-2.07-.66H129l.2-.67a4.46,4.46,0,0,0,3.18-1.33,3.85,3.85,0,0,0,1.15-2.68,1.88,1.88,0,0,0-.4-1.27,1.51,1.51,0,0,0-1.19-.49q-2.22,0-3.31,2.75h-.41Zm13.34,8.14-1.13,4a5.52,5.52,0,0,0-.25,1.21.91.91,0,0,0,.32.75,2.87,2.87,0,0,0,1.44.27l-.14.37h-7l.11-.37a3.28,3.28,0,0,0,1.26-.18,1.38,1.38,0,0,0,.61-.54,6.48,6.48,0,0,0,.55-1.51L141,64.12a5.14,5.14,0,0,0,.28-1.32.85.85,0,0,0-.35-.68,2.25,2.25,0,0,0-1.27-.29l.12-.37h5.71a7.06,7.06,0,0,1,3.38.6,3,3,0,0,1,1.59,2.81,4.12,4.12,0,0,1-1.59,3.19,6.31,6.31,0,0,1-4.28,1.38A14.41,14.41,0,0,1,142.6,69.27Zm.23-.83a8.86,8.86,0,0,0,1.13.09,2.55,2.55,0,0,0,2.27-1.35,5.15,5.15,0,0,0,.83-2.79,2.15,2.15,0,0,0-.53-1.54,2,2,0,0,0-1.49-.54l-.49,0Zm12.71,7.76a4.94,4.94,0,0,1-2.81-.71,4.37,4.37,0,0,1-1.6-1.94,6,6,0,0,1-.54-2.4,9.71,9.71,0,0,1,1.34-4.75,10.67,10.67,0,0,1,3.63-3.83,8.43,8.43,0,0,1,4.51-1.44,5,5,0,0,1,2.48.66,4.67,4.67,0,0,1,1.82,1.84A4.9,4.9,0,0,1,165,66a10,10,0,0,1-1.71,5.38,11.13,11.13,0,0,1-3.83,3.91A8,8,0,0,1,155.54,76.2ZM159.74,62a3.16,3.16,0,0,0-1.44.3,4.64,4.64,0,0,0-1.22,1,9.29,9.29,0,0,0-1.29,2,19.2,19.2,0,0,0-1.24,3.6,16.26,16.26,0,0,0-.57,3.8,3,3,0,0,0,.55,2,1.84,1.84,0,0,0,1.45.67,2.75,2.75,0,0,0,2-.78,11.09,11.09,0,0,0,2.65-4.52,16.68,16.68,0,0,0,1-5.31,3.3,3.3,0,0,0-.54-2.11A1.69,1.69,0,0,0,159.74,62Zm13.54-.52h6.62l-.11.37a1.73,1.73,0,0,0-1.43.75,9.6,9.6,0,0,0-.9,2.36l-1,3.33a4.62,4.62,0,0,0,1.88-.54,3.35,3.35,0,0,0,1.07-1,14.79,14.79,0,0,0,1-2.33A5.66,5.66,0,0,1,182,61.88a2.77,2.77,0,0,1,1.65-.57,1.93,1.93,0,0,1,1.28.42,1.35,1.35,0,0,1,.51,1.1A1.45,1.45,0,0,1,184,64.26a1.36,1.36,0,0,1-1.15-.64c-.19-.29-.4-.44-.59-.44a.62.62,0,0,0-.56.38,17.1,17.1,0,0,0-.76,1.86,8.34,8.34,0,0,1-.86,1.82,3.14,3.14,0,0,1-1.56,1.19,1.79,1.79,0,0,1,1,.92,15.7,15.7,0,0,1,1,3.25,7.56,7.56,0,0,0,.77,2.39,1.33,1.33,0,0,0,1.07.5l-.12.39h-4.06L177,70.42a4.83,4.83,0,0,0-.34-1.14.39.39,0,0,0-.34-.21l-1.1,3.86a8.18,8.18,0,0,0-.37,1.64c0,.51.34.81,1,.92l-.11.39h-6.3l.12-.39a2.14,2.14,0,0,0,1.53-.47,7.24,7.24,0,0,0,1.07-2.58l1-3.39a1,1,0,0,0-.67.21,12.55,12.55,0,0,0-1,1.21l-4.33,5.41h-4.52l.1-.37c.73-.05,1.77-1,3.14-2.81.86-1.15,1.5-2,1.91-2.43A5.73,5.73,0,0,1,169.27,69a5,5,0,0,1,2.18-.59,2.36,2.36,0,0,1-.83-2,11.83,11.83,0,0,1,.13-1.27,11.41,11.41,0,0,0,.15-1.33c0-.39-.13-.59-.39-.59s-.35.13-.56.39a1.45,1.45,0,0,1-1.07.61,1.31,1.31,0,0,1-.95-.38,1.24,1.24,0,0,1-.39-.94,1.53,1.53,0,0,1,.5-1.13,2,2,0,0,1,1.45-.5,2.08,2.08,0,0,1,1.64.67,2.36,2.36,0,0,1,.59,1.62,16.89,16.89,0,0,1-.17,1.76c-.06.52-.1.93-.1,1.19a2,2,0,0,0,.27,1.08,1.18,1.18,0,0,0,.62.53,3.55,3.55,0,0,0,1,.11l1-3.5a8.94,8.94,0,0,0,.44-2.06.64.64,0,0,0-.35-.6,3.65,3.65,0,0,0-1.24-.28Zm15.41,0H200.8l-.11.37a2.16,2.16,0,0,0-1.73.57,8.68,8.68,0,0,0-1.1,2.73l-2.23,7.8a6.67,6.67,0,0,0-.31,1.59.87.87,0,0,0,.24.73,2,2,0,0,0,.92.22L195.17,80h-.41a6,6,0,0,0,.15-1.32,3.18,3.18,0,0,0-.61-2.08,2.55,2.55,0,0,0-2.11-.75h-4a8.4,8.4,0,0,0-2.47.3,4.62,4.62,0,0,0-1.83,1.23A11.47,11.47,0,0,0,182.07,80h-.37l1.3-4.56a2.71,2.71,0,0,0,1.42-.39,7.56,7.56,0,0,0,1.67-1.72,20.8,20.8,0,0,0,2-3.53,29.81,29.81,0,0,0,1.63-4.18,11.26,11.26,0,0,0,.61-2.75A.91.91,0,0,0,190,62a3.43,3.43,0,0,0-1.43-.2Zm2.95.8-.82,2.88c-.16.55-.46,1.42-.92,2.63a29.4,29.4,0,0,1-1.72,3.68,32.74,32.74,0,0,1-2.31,3.63H190a2.66,2.66,0,0,0,1.63-.31,6.77,6.77,0,0,0,.76-2l3-10.53Zm15.53,0-1.58,5.6h.49a5.92,5.92,0,0,0,2.83-.52,3.8,3.8,0,0,0,1.5-1.79h.38l-1.62,5.59h-.37a5.18,5.18,0,0,0,.1-.91,1.41,1.41,0,0,0-.34-1,2,2,0,0,0-.89-.53,6.65,6.65,0,0,0-1.49-.1h-.81L204,73.47a4,4,0,0,0-.18,1,.46.46,0,0,0,.23.4,2.73,2.73,0,0,0,1.29.21,7.6,7.6,0,0,0,3.4-.77,8.43,8.43,0,0,0,2.87-2.34H212l-1.5,4H198.39l.13-.37a2.28,2.28,0,0,0,1.5-.41,4,4,0,0,0,.85-1.82L203.52,64a4.57,4.57,0,0,0,.22-1.23.74.74,0,0,0-.29-.62,3.12,3.12,0,0,0-1.35-.29l.08-.37h11.6l-.94,3.61h-.37a3.16,3.16,0,0,0-.33-1.5,2.58,2.58,0,0,0-1.2-1,6.57,6.57,0,0,0-2.4-.32Zm12.75,5.83h5.26l1.14-4a4.82,4.82,0,0,0,.23-1.26.8.8,0,0,0-.28-.66,3.13,3.13,0,0,0-1.38-.29l.12-.37h7.12l-.11.37a2.43,2.43,0,0,0-1.59.45,3.64,3.64,0,0,0-.92,1.78l-2.64,9.25a5.2,5.2,0,0,0-.26,1.3.67.67,0,0,0,.28.6,2.46,2.46,0,0,0,1.35.3l-.11.37h-7l.16-.37a2.28,2.28,0,0,0,1.5-.4,3.87,3.87,0,0,0,.89-1.81l1.22-4.3h-5.23l-1.23,4.31a5.05,5.05,0,0,0-.27,1.32.74.74,0,0,0,.33.62,2.47,2.47,0,0,0,1.28.26l-.11.37h-6.89l.12-.37a2.29,2.29,0,0,0,1.49-.4,4,4,0,0,0,.87-1.81L217.9,64a4.59,4.59,0,0,0,.24-1.25.84.84,0,0,0-.28-.67,3,3,0,0,0-1.34-.29l.11-.37h7l-.15.37a2.25,2.25,0,0,0-1.48.42,4,4,0,0,0-.91,1.81Zm22-6.63h6.9l-.12.37a2.49,2.49,0,0,0-1.13.22,1.71,1.71,0,0,0-.7.71,9.72,9.72,0,0,0-.74,2L243.8,73a7.27,7.27,0,0,0-.33,1.54c0,.6.53.91,1.6.93l-.11.37H238l.12-.37a2.09,2.09,0,0,0,1.56-.5,6.18,6.18,0,0,0,1-2.39l2-7.13-7.56,8.22a3.29,3.29,0,0,0-.16.89c0,.61.55.91,1.63.91l-.11.37h-6.92l.11-.37A2,2,0,0,0,231.3,75a5.75,5.75,0,0,0,1-2.23l2.34-8.23a10,10,0,0,0,.4-1.77.89.89,0,0,0-.25-.6,2.3,2.3,0,0,0-1.36-.31l.11-.37h7l-.12.37a2,2,0,0,0-1.63.58,6.74,6.74,0,0,0-1,2.42l-2,7,7.57-8.22a3.65,3.65,0,0,0,.14-.82c0-.65-.54-1-1.62-1Zm13.46.8-1.57,5.6h.48a5.92,5.92,0,0,0,2.83-.52,3.87,3.87,0,0,0,1.51-1.79H259l-1.62,5.59H257a6.11,6.11,0,0,0,.09-.91,1.36,1.36,0,0,0-.34-1,1.9,1.9,0,0,0-.89-.53,6.6,6.6,0,0,0-1.48-.1h-.82l-1.37,4.83a4,4,0,0,0-.18,1,.46.46,0,0,0,.23.4,2.68,2.68,0,0,0,1.28.21,7.7,7.7,0,0,0,3.41-.77,8.62,8.62,0,0,0,2.87-2.34h.43l-1.5,4H246.61l.13-.37a2.28,2.28,0,0,0,1.5-.41,3.82,3.82,0,0,0,.85-1.82L251.74,64a4.57,4.57,0,0,0,.22-1.23.72.72,0,0,0-.29-.62,3,3,0,0,0-1.35-.29l.09-.37H262l-.94,3.61h-.37a2.94,2.94,0,0,0-.33-1.5,2.6,2.6,0,0,0-1.19-1,6.7,6.7,0,0,0-2.42-.32Z"></path>
  <path class="cls-2" d="M52.94,63.29c-.15.58-1.74,2.91-2.45,4.65-.55,1.35-1.63,3.74-1.63,5.5,0,0,4.56-6,7.27-6.24a20.87,20.87,0,0,0-4.78,12.46c.8-1.68,3.51-5.49,6.55-6.76-2.19,4.6-2.74,7-3.89,11.92C56,83.74,57.44,83,58.72,81c2.4-3.61,2.65-7.39,5-10.92.94-1.45,3.53-4.26,5.23-4.66-1.93,3.11-4,7.79-4.08,11a18.36,18.36,0,0,1,7.27-7.3c-2,3.81-4.17,8.11-4.17,12.8.91-2.46,4.06-6.49,6.88-7.84A38.24,38.24,0,0,1,73,79.66c6-5.1,12.17-12.28,15.3-19.83,2.57-6.21,2.9-12.76.88-17.94-1-2.47-3.46-6.17-6.26-4.76-2.06,1-.22,3.78-2.43,8.95a16.51,16.51,0,0,1-5.19,6.18C77,48,77.54,45.64,77.48,40.13c0-1.9.21-3.77,1.52-5.13-3.84,1.19-4.54,3.62-5.17,6.19a25.39,25.39,0,0,1-3.43,8.13c-1,1.32-4.56,5.53-5.79,5.61s-.51-2.28-.26-2.79c1.55-3.28,4.2-4.49,4.21-7.18,0-4.13-6.41-1.68-8-.89C52.15,48.24,46.25,56.25,43,64.92,40.31,72.3,40,77.11,40,85,40.77,79.78,47.69,64.7,52.94,63.29Z"></path>
</svg>
