<?xml version="1.0" encoding="UTF-8"?>
<svg xmlns="http://www.w3.org/2000/svg" id="Слой_1" data-name="Слой 1" viewBox="0 0 302 120">
  <defs>
    <style>.cls-1{fill:#fc0;}.cls-1,.cls-3{fill-rule:evenodd;}.cls-2,.cls-3{fill:#040b15;}</style>
  </defs>
  <path class="cls-1" d="M57.31,40h40V80h-40Zm5.58,5.59H91.73V74.41H62.89Z"></path>
  <path class="cls-2" d="M108.67,61.18a2,2,0,0,0,1.79,2.9h1.05a2,2,0,0,0,1.82-1.18l3-6.66a.72.72,0,0,1,.65-.42.69.69,0,0,1,.64.42l3,6.66a2,2,0,0,0,1.82,1.18h1a2,2,0,0,0,1.8-2.9l-3.5-7a2,2,0,0,1,0-1.77L125,45.88A2,2,0,0,0,123.2,43h-1a2,2,0,0,0-1.83,1.22l-2.69,6.18a.7.7,0,0,1-.64.43.72.72,0,0,1-.65-.43l-2.69-6.18A2,2,0,0,0,111.83,43h-1.07a2,2,0,0,0-1.8,2.88l3.21,6.58a2,2,0,0,1,0,1.77Z"></path>
  <path class="cls-3" d="M127.65,53.54a11.71,11.71,0,0,0,2.86,7.92,9,9,0,0,0,7,3.25A9.19,9.19,0,0,0,145.22,61a11.43,11.43,0,0,0,.82-1.3,1.7,1.7,0,0,0-1.65-2.44H143a3.13,3.13,0,0,0-2.08,1.13l-.15.14a4.62,4.62,0,0,1-3.25,1.21,4.24,4.24,0,0,1-3.06-1.41,6.51,6.51,0,0,1-1.61-3.55H146a1.2,1.2,0,0,0,1.21-1.21,12.11,12.11,0,0,0-2.71-8,9.18,9.18,0,0,0-14,.05A11.58,11.58,0,0,0,127.65,53.54Zm13-2.28h-7.58a5.73,5.73,0,0,1,1.59-2.81,4,4,0,0,1,2.87-1.12,3.86,3.86,0,0,1,2.86,1.17,4.69,4.69,0,0,1,1.13,1.62A.85.85,0,0,1,140.63,51.26Z"></path>
  <path class="cls-2" d="M148.85,61.63a2,2,0,0,0,2,2.45h.89a2,2,0,0,0,1.95-1.55l3.23-13.7a1.13,1.13,0,0,1,2.2,0l3.17,13.7a2,2,0,0,0,1.95,1.55h.95a2,2,0,0,0,1.94-2.45l-3.92-17.07A2,2,0,0,0,161.21,43h-6.48a2,2,0,0,0-2,1.56Z"></path>
  <path class="cls-2" d="M167.12,46a2,2,0,0,0,2,2h4.06V62.08a2,2,0,0,0,2,2h1a2,2,0,0,0,2-2V48h4.06a2,2,0,0,0,2-2V45a2,2,0,0,0-2-2H169.12a2,2,0,0,0-2,2Z"></path>
  <path class="cls-3" d="M185.37,53.54a11.67,11.67,0,0,0,2.87,7.92,9,9,0,0,0,7,3.25,9.62,9.62,0,0,0,8.56-5,1.72,1.72,0,0,0-1.67-2.45H200.7a3,3,0,0,0-2.07,1.15,1.27,1.27,0,0,0-.1.12,4.76,4.76,0,0,1-3.31,1.21,4.07,4.07,0,0,1-3-1.41,6.22,6.22,0,0,1-1.65-3.55h13.16a1.21,1.21,0,0,0,1.22-1.21,12.07,12.07,0,0,0-2.73-8,8.75,8.75,0,0,0-7-3.21,8.85,8.85,0,0,0-7,3.26A11.54,11.54,0,0,0,185.37,53.54Zm13-2.28h-7.6a5.81,5.81,0,0,1,1.59-2.81,4.15,4.15,0,0,1,2.87-1.12,3.81,3.81,0,0,1,2.87,1.17,4.69,4.69,0,0,1,1.13,1.62A.85.85,0,0,1,198.36,51.26Z"></path>
  <path class="cls-2" d="M208,62.08a2,2,0,0,0,2,2h1a2,2,0,0,0,2-2V55.82h1.5a2,2,0,0,1,1.74,1l3.51,6.2a2,2,0,0,0,1.75,1h1.17a2,2,0,0,0,1.73-3l-4.17-7.35a2,2,0,0,1,0-2l3.45-5.66a2,2,0,0,0-1.7-3h-.91a2,2,0,0,0-1.69,1l-3.69,5.92a2,2,0,0,1-1.7.95h-1V45a2,2,0,0,0-2-2h-1a2,2,0,0,0-2,2Z"></path>
  <path class="cls-2" d="M226.09,53.54a11.68,11.68,0,0,0,2.82,7.92,9.21,9.21,0,0,0,7,3.25,8.53,8.53,0,0,0,7.67-4.18,8.41,8.41,0,0,0,.94-1.76,1.77,1.77,0,0,0-1.76-2.36h-1.35a2.39,2.39,0,0,0-2,1.23,3,3,0,0,1-.19.3l-.08.12a4,4,0,0,1-6.55-.05,7,7,0,0,1-1.36-4.47,6.92,6.92,0,0,1,1.36-4.46,4.14,4.14,0,0,1,3.3-1.75A4.1,4.1,0,0,1,239.2,49c.11.16.2.3.3.47a2.25,2.25,0,0,0,1.91,1.19h1.3a1.78,1.78,0,0,0,1.75-2.43,13.31,13.31,0,0,0-.93-1.7A8.44,8.44,0,0,0,236,42.37a9,9,0,0,0-7,3.26A11.55,11.55,0,0,0,226.09,53.54Z"></path>
  <path class="cls-2" d="M108.62,74.27h-.68a2.25,2.25,0,0,0,.3.72,1.79,1.79,0,0,0,1.59.74,2.08,2.08,0,0,0,1.32-.39,1.1,1.1,0,0,0,.41-1.33l0-.07a.8.8,0,0,0-.19-.3,1,1,0,0,0-.24-.19l-.1-.06a.26.26,0,0,0-.1,0h-.09v-.06a.92.92,0,0,0,.72-1,1.12,1.12,0,0,0-.43-.88,2,2,0,0,0-1.27-.38,1.74,1.74,0,0,0-1.45.68,1.42,1.42,0,0,0-.34.68h.73a1,1,0,0,1,.19-.35,1,1,0,0,1,.87-.33,1.08,1.08,0,0,1,.74.19.46.46,0,0,1,.28.44c0,.44-.33.63-1,.63h-.53v.68h.53a1.19,1.19,0,0,1,.77.19.46.46,0,0,1,.24.48.53.53,0,0,1-.24.49,1.42,1.42,0,0,1-.83.19,1.25,1.25,0,0,1-1-.38A1,1,0,0,1,108.62,74.27Z"></path>
  <path class="cls-3" d="M112.32,73.4A2.15,2.15,0,0,0,113,75a1.87,1.87,0,0,0,1.45.69,2.1,2.1,0,0,0,1-.2,2,2,0,0,0,.43-.37l.11-.12,0-.14v.73h.72V71.17H116v.72l0-.14a4.17,4.17,0,0,0-.58-.44,1.82,1.82,0,0,0-.93-.24,1.86,1.86,0,0,0-1.45.68A2.26,2.26,0,0,0,112.32,73.4Zm.68,0a1.54,1.54,0,0,1,.43-1.16,1.29,1.29,0,0,1,1.06-.49,1.27,1.27,0,0,1,1.07.49,1.49,1.49,0,0,1,.4,1.16,1.71,1.71,0,0,1-.4,1.21,1.41,1.41,0,0,1-1.07.43,1.43,1.43,0,0,1-1.06-.43A1.78,1.78,0,0,1,113,73.4Z"></path>
  <path class="cls-3" d="M117.89,71.17v4.46H120a1.39,1.39,0,0,0,1-.34,1.14,1.14,0,0,0,.4-.93,1.45,1.45,0,0,0,0-.48l-.09-.15a1,1,0,0,0-.1-.14l-.17-.13L121,73.4l-.07,0a.68.68,0,0,0-.17-.07l-.05,0,0,0h.09a.33.33,0,0,1,.1-.06l.09,0a.49.49,0,0,0,.14-.19.26.26,0,0,0,.16-.25,1.27,1.27,0,0,0,.09-.43.94.94,0,0,0-.39-.78,1.12,1.12,0,0,0-.91-.33ZM120,73h-1.42V71.84H120c.43,0,.63.19.63.59S120.42,73,120,73ZM120,75h-1.47V73.64H120a1.16,1.16,0,0,1,.58.14.72.72,0,0,1,.19.54.61.61,0,0,1-.19.48A1.06,1.06,0,0,1,120,75Z"></path>
  <path class="cls-3" d="M122.21,73.4a2.19,2.19,0,0,0,.63,1.64,2,2,0,0,0,1.61.69A2.07,2.07,0,0,0,126.1,75a2.35,2.35,0,0,0,.63-1.64,2.37,2.37,0,0,0-.63-1.65,2.24,2.24,0,0,0-1.65-.68,2.24,2.24,0,0,0-2.24,2.33Zm.68,0a1.54,1.54,0,0,1,.44-1.16,1.39,1.39,0,0,1,1.12-.49,1.34,1.34,0,0,1,1.12.49A1.58,1.58,0,0,1,126,73.4a1.83,1.83,0,0,1-.43,1.21,1.49,1.49,0,0,1-1.12.43,1.55,1.55,0,0,1-1.12-.43A1.78,1.78,0,0,1,122.89,73.4Z"></path>
  <path class="cls-3" d="M127.12,75v1.7h.68v-1h3.39v1h.69V75h-.44l-1-3.78h-1.85l-1,3.78Zm3.59,0h-2.42l.82-3.11h.77Z"></path>
  <path class="cls-2" d="M134.73,73.4a2.19,2.19,0,0,0,.64,1.64,1.86,1.86,0,0,0,1.55.69,2.16,2.16,0,0,0,1.7-.83,2,2,0,0,0,.4-.82h-.69a1.18,1.18,0,0,1-.29.49,1.56,1.56,0,0,1-2.19,0,1.83,1.83,0,0,1-.43-1.21,1.58,1.58,0,0,1,.43-1.16,1.3,1.3,0,0,1,1.07-.49,1.34,1.34,0,0,1,1.07.44.93.93,0,0,1,.29.47H139a5.2,5.2,0,0,0-.4-.82,2.27,2.27,0,0,0-1.7-.77,2,2,0,0,0-1.55.68A2.22,2.22,0,0,0,134.73,73.4Z"></path>
  <path class="cls-2" d="M139.35,71.17v.67h1.51v3.79h.68V71.84h1.54v-.67Z"></path>
  <path class="cls-3" d="M143.73,71.17v6.16h.72V74.9l.1.14a1.23,1.23,0,0,0,.48.49,2.13,2.13,0,0,0,1,.2,1.9,1.9,0,0,0,1.46-.69,2.15,2.15,0,0,0,.63-1.64,2.26,2.26,0,0,0-.63-1.65,1.89,1.89,0,0,0-1.46-.68,1.79,1.79,0,0,0-.92.24,1.17,1.17,0,0,0-.53.44l-.1.14v-.72Zm.72,2.23a1.74,1.74,0,0,1,.38-1.16,1.3,1.3,0,0,1,1.07-.49,1.27,1.27,0,0,1,1.07.49,1.51,1.51,0,0,1,.44,1.16,1.74,1.74,0,0,1-.44,1.21,1.41,1.41,0,0,1-1.07.43,1.44,1.44,0,0,1-1.07-.43A2,2,0,0,1,144.45,73.4Z"></path>
  <path class="cls-3" d="M148.77,73.4a2.18,2.18,0,0,0,.68,1.64,1.9,1.9,0,0,0,1.6.69,2,2,0,0,0,1.61-.69,2.19,2.19,0,0,0,.63-1.64,2.24,2.24,0,0,0-2.24-2.33,2,2,0,0,0-1.6.68A2.21,2.21,0,0,0,148.77,73.4Zm.72,0a1.58,1.58,0,0,1,.44-1.16,1.52,1.52,0,0,1,2.24,0,1.58,1.58,0,0,1,.43,1.16,1.83,1.83,0,0,1-.43,1.21,1.55,1.55,0,0,1-1.12.43,1.54,1.54,0,0,1-1.12-.43A1.83,1.83,0,0,1,149.49,73.4Z"></path>
  <path class="cls-2" d="M154.25,71.17v4.46H155l2.37-3.44v3.44h.68V71.17h-.78L155,74.61h0l0-.09V71.17Z"></path>
  <path class="cls-2" d="M158.77,71.17v.67h1.5v3.79H161V71.84h1.54v-.67Z"></path>
  <path class="cls-3" d="M162.9,73.4a2.15,2.15,0,0,0,.63,1.64,1.84,1.84,0,0,0,1.54.69,2.16,2.16,0,0,0,1.7-.74,1.8,1.8,0,0,0,.44-.72h-.67l0,0a1.1,1.1,0,0,1-.32.36,1.74,1.74,0,0,1-1.12.38,1.56,1.56,0,0,1-1-.38,1.66,1.66,0,0,1-.49-1h3.74v-.29a2.13,2.13,0,0,0-.63-1.6,2.2,2.2,0,0,0-1.61-.68,2,2,0,0,0-1.54.68A2.17,2.17,0,0,0,162.9,73.4Zm3.68-.39h-3a1.58,1.58,0,0,1,.54-.87,1.31,1.31,0,0,1,1-.39,1.46,1.46,0,0,1,1,.39A1.43,1.43,0,0,1,166.58,73Z"></path>
  <path class="cls-2" d="M169,71.17l-1.21,4.46h.72l1-3.79h.77l1,3.79H172l-1.22-4.46Z"></path>
  <path class="cls-3" d="M172.7,71.17v4.46h2a1.64,1.64,0,0,0,1.16-.43,1.26,1.26,0,0,0,.48-1,1.35,1.35,0,0,0-.48-1.07,1.65,1.65,0,0,0-1.16-.44h-1.22V71.17Zm2,3.78h-1.22v-1.6h1.22a1,1,0,0,1,.67.24.66.66,0,0,1,.24.58.68.68,0,0,1-.24.59A1,1,0,0,1,174.65,75Z"></path>
  <path class="cls-2" d="M177.12,71.17v4.46h.68V73.69h2.42v1.94H181V71.17h-.73V73H177.8V71.17Z"></path>
  <path class="cls-2" d="M186.1,71.17v4.46h.72V71.17Z"></path>
  <path class="cls-3" d="M182.16,71.17v4.46h1.75a1.62,1.62,0,0,0,1.17-.43,1.38,1.38,0,0,0,.48-1,1.48,1.48,0,0,0-.48-1.07,1.62,1.62,0,0,0-1.17-.44h-1.07V71.17ZM183.91,75h-1.07v-1.6h1.07a1,1,0,0,1,.68.24.65.65,0,0,1,.25.58.67.67,0,0,1-.25.59A1,1,0,0,1,183.91,75Z"></path>
  <path class="cls-2" d="M188.81,73.35l-1.31,2.28h.79l1.1-1.94h.4l1.06,1.94h.78l-1.31-2.28,1.26-2.18h-.77l-1,1.84h-.4l-1.06-1.84h-.78Z"></path>
  <path class="cls-2" d="M194.79,71.17v4.46h.68V72l1.31,2.77h.91L199,72h0v3.64h.68V71.17h-1.07l-1.26,2.77h-.25l-1.31-2.77Z"></path>
  <path class="cls-3" d="M200.65,73.4a2.37,2.37,0,0,0,.59,1.64,2.07,2.07,0,0,0,1.51.69,2,2,0,0,0,.93-.2,1.65,1.65,0,0,0,.52-.49l.11-.14v.73H205V71.17h-.67v.72l-.11-.14a1.84,1.84,0,0,0-.52-.44,2,2,0,0,0-.93-.24,2.06,2.06,0,0,0-1.51.68A2.5,2.5,0,0,0,200.65,73.4Zm.7,0a1.57,1.57,0,0,1,.42-1.16,1.21,1.21,0,0,1,1-.49,1.3,1.3,0,0,1,1.07.49,1.58,1.58,0,0,1,.44,1.16,1.83,1.83,0,0,1-.44,1.21,1.44,1.44,0,0,1-1.07.43,1.34,1.34,0,0,1-1-.43A1.82,1.82,0,0,1,201.35,73.4Z"></path>
  <path class="cls-2" d="M205.66,71.17v.67h1.5v3.79h.69V71.84h1.55v-.67Z"></path>
  <path class="cls-3" d="M209.79,73.4a2.15,2.15,0,0,0,.63,1.64,2,2,0,0,0,1.6.69,2.12,2.12,0,0,0,1.64-.74,2.24,2.24,0,0,0,.43-.61l.06-.11h-.72a.81.81,0,0,1-.35.39A1.68,1.68,0,0,1,212,75a1.6,1.6,0,0,1-1.07-.38,1.9,1.9,0,0,1-.48-1h3.73v-.29a2.13,2.13,0,0,0-.63-1.6,2,2,0,0,0-1.55-.68,2.24,2.24,0,0,0-2.23,2.33Zm3.69-.39h-3a1.27,1.27,0,0,1,.49-.87,1.36,1.36,0,0,1,1-.39,1.33,1.33,0,0,1,1,.39A1.27,1.27,0,0,1,213.48,73Z"></path>
  <path class="cls-3" d="M215.18,71.17v6.16h.67V74.9h.05l0,.14a1.59,1.59,0,0,0,.53.49,2.17,2.17,0,0,0,1,.2,1.87,1.87,0,0,0,1.45-.69,2.35,2.35,0,0,0,.63-1.64,2.49,2.49,0,0,0-.63-1.65,1.86,1.86,0,0,0-1.45-.68,2.18,2.18,0,0,0-1,.24,1.76,1.76,0,0,0-.53.44l0,.14h-.05v-.72Zm.67,2.23a1.54,1.54,0,0,1,.44-1.16,1.28,1.28,0,0,1,1.07-.49,1.27,1.27,0,0,1,1.06.49,1.7,1.7,0,0,1,.4,1.16,2,2,0,0,1-.4,1.21,1.4,1.4,0,0,1-1.06.43,1.42,1.42,0,0,1-1.07-.43A1.78,1.78,0,0,1,215.85,73.4Z"></path>
  <path class="cls-2" d="M220.47,71.17v4.46h.82l2.33-3.44v3.44h.68V71.17h-.78l-2.33,3.44V71.17Z"></path>
  <path class="cls-3" d="M225.27,73.4A2.15,2.15,0,0,0,225.9,75a1.88,1.88,0,0,0,1.45.69,1.78,1.78,0,0,0,.93-.2,1.25,1.25,0,0,0,.54-.49l.09-.14v.73h.73V71.17h-.73v.72l-.09-.14a1.82,1.82,0,0,0-.54-.44,1.77,1.77,0,0,0-.93-.24,1.87,1.87,0,0,0-1.45.68A2.26,2.26,0,0,0,225.27,73.4Zm.68,0a1.51,1.51,0,0,1,.44-1.16,1.4,1.4,0,0,1,2.13,0,1.69,1.69,0,0,1,.39,1.16,2,2,0,0,1-.39,1.21,1.53,1.53,0,0,1-2.13,0A1.74,1.74,0,0,1,226,73.4Z"></path>
  <path class="cls-2" d="M231.53,71.17l-1.21,4.46h.73l1-3.79h.79l1,3.79h.74l-1.22-4.46Z"></path>
  <path class="cls-3" d="M235,73.4a2.22,2.22,0,0,0,.63,1.64,2.27,2.27,0,0,0,3.26,0,2.15,2.15,0,0,0,.63-1.64,2.17,2.17,0,0,0-.63-1.65,2.29,2.29,0,0,0-3.26,0A2.25,2.25,0,0,0,235,73.4Zm.68,0a1.58,1.58,0,0,1,.44-1.16,1.39,1.39,0,0,1,1.12-.49,1.33,1.33,0,0,1,1.12.49,1.44,1.44,0,0,1,.49,1.16,1.65,1.65,0,0,1-.49,1.21,1.48,1.48,0,0,1-1.12.43,1.55,1.55,0,0,1-1.12-.43A1.83,1.83,0,0,1,235.7,73.4Z"></path>
  <path class="cls-3" d="M240.52,71.17v4.46h2.13a1.5,1.5,0,0,0,1.07-.34,1.35,1.35,0,0,0,.39-.93.72.72,0,0,0-.11-.48.4.4,0,0,0-.19-.29.47.47,0,0,0-.24-.19.37.37,0,0,0-.2-.11.14.14,0,0,1-.09,0h.09a.18.18,0,0,1,.08,0,.18.18,0,0,0,.08,0,.39.39,0,0,0,.19-.19.92.92,0,0,0,.14-.25,1.24,1.24,0,0,0,0-.43.93.93,0,0,0-.34-.78,1.15,1.15,0,0,0-.92-.33ZM242.6,73h-1.4V71.84h1.4c.44,0,.63.19.63.59S243,73,242.6,73Zm.05,1.94H241.2V73.64h1.45a1.06,1.06,0,0,1,.58.14v0a.92.92,0,0,1,.18.52.86.86,0,0,1-.19.48A1,1,0,0,1,242.65,75Z"></path>
</svg>
