<?xml version="1.0" encoding="UTF-8"?>
<svg xmlns="http://www.w3.org/2000/svg" viewBox="0 0 1454 750" >
  <defs>
    <style>.cls-1{fill:#0eb1b8;}</style>
  </defs>
  <path class="cls-1" d="M706.58,201.18l-.18.54-.91,2-.18.36.36.36,1.82,2.53.55.9.73-.72,2-2L711,205v-.36l.18-2.35v-.9h-.91l-3.1-.18Zm4,31.78-.18,2.71v.55l.37.36,1.82,1.26.73.54.54-.9,1.1-2,.36-.72-.73-.36-2.73-1.81-1.28-.9V233Zm-2.37,7.59-1.09-1.08-.36,1.44-.92,3.25-.18.54.55.36,1.82,1.27.91.54.55-.9,1.28-2.35.36-.54-.36-.54-2.56-2Zm5.47-9.57v.18l.18.18,2,1.62.73.55.55-.73,2-2.71.55-.72-.73-.54-3.28-2.35-.55-.36-.55.36L713,227.73l-.54.36.18.54Zm29.9-48.76v.36l.36.18,4.38,2.35,1.27.72.19-1.26.36-3.44v-.36l-.18-.36-2.74-3.25-.54-.72L746,177l-2,1.81-.36.36v3.07ZM718.61,97v.54l.55.18L723,98.78h.36l4.2-1.08,1.09-.18-.36-.9-2.37-5.42-.19-.18-.18-.18-3.1-2.35L721.9,88l-.55.54-2.19,2-.18.18V91l-.37,3.43ZM680.7,222.85l-.19.54-.54,2.35v.36l.18.36,2,2.71.55.72.73-.72,2.19-2.35.36-.36-.18-.54-.91-3.61-.18-.9-.92.18-2.73.9-.36.36Zm-4.2,32.51-.36-.18-2.73-1.45-.74-.36-.36.72-3.28,4.7-.37.54.37.54,4,5.24.37.54.54-.36,2.74-1.26.54-.18v-.73l-.91-7.22.18-.54Zm-8.75-169-.18-.72-1.46-4.33-.18-.36-.36-.19-5.29-2.16-.55-.18-.36.36-4.56,3.79-.36.18v.36l-.19,3.07v.36l.37.37,3.83,3.43.36.36.55-.18,7.84-3.8.54-.36ZM663.2,260.05l-.92.54-4.92,2.71-.18.18-.18.18-1.28,2.53-.55.91.92.36,4,1.44h.36l4-.72.91-.18-.18-.9-1.64-6Zm6.56-177.7-.37.72-.91,2-.18.18v.36l.91,4,.18.73h.73l7.84-.18h.55l.18-.37,3.1-5,.36-.54-.36-.55-2.55-4.15-.73-1.08-.73,1.08-2.92,4.33-4.37-1.08-.73-.36Zm29.35,132.19,2.55,1.81.55.36.55-.36,3.46-2L707,214l-.37-.72-2-3.43-.18-.36-.37-.18-2.92-.91-.54-.18-.37.36-2.73,2.35-.73.54.55.73,1.82,2.34Zm4.19-89.93.18.18h5.29v-.9l-.18-3.62v-.36l-.18-.18-2.74-3.61-.36-.54-.73.36-3.47,1.45-.36.18v.36l-.55,2.71v.54l.37.36Zm.55,112.69-.55-.18-2.73-.72-.73-.18-.37.54L697.65,240l-.37.54.55.54,3.28,3.07.55.54L704.4,242l.36-.36-.18-.54-.91-3.43.18-.36ZM678.14,72.6l.37.9.91-.36,3.28-1.26.73-.37-.18-.72L682,66.64l-.36-1.08-.91.54-3.1,2-.55.36.18.73Zm111.93,50.74-.36,2.89-1.46.55-1.82-6.87-.37-1.08-.91.54L773.67,125l-.37.18-.18.36-4.19,10.12V136l-.18,3.25v.54l.54.18,4.2,1.8,7.47,6.33,8.38,5.78.37.36.55-.18,4.19-2.17.37-.18v-.36l.91-5.78v-.36l-.19-.36-2.91-3.25,3.46-5.6.18-.18v-.18l.37-6.69v-.36l-.37-.36-5.1-5-1.28-1.27.19,1.45Zm209.28,72.78-.73-.18-9.29-1.26-1.46-.18.54,1.44,1.83,4.16.18.18.18.18,4.19,2.53.37.18.36-.18,3.65-.91.73-.18v-.72l-.37-4.51-.18-.55Zm20.78-79.46.73.18.19-.72,1.45-3.79.37-.9-.91-.36-3.83-1.45-.91-.36-.19.9-1.27,4.34-.18.9.91.18Zm-262,10.48v.36l.37.18,6.19,4.33.37.37.55-.19,4.37-2.34.37-.18.18-.36,1.27-4.34.19-.72.18.18.55-.18L785,118.83l.55-.18v-4.88l4.37-2.35.73-.36-.36-.72-1.83-3.61-2.91-8.31v-.18l-.18-.18-5.29-4.69-.55-.55-.55.55-4.73,4.69-4.75,3.07-.54.36.18.54,1.09,5.42-4.74,6.14-.18.18v4.52l.37.18,6.19,5.6-.54-.18-9.3-3.62-.36-.18-.37.18-3.65,2-.54.36.18.73.91,3.79ZM1015.94,177l-.55.54-2.37,2.35-.36.36.18.54,1.64,7.41.18.72H1020l.18-.72.73-6.5v-.54l-.36-.37-3.83-3.25-.73-.54Zm5.11,9.39v9.75l1.09-.18,9.48-2h.36l8.75-4.52.73-.36-.36-.72-2.92-6.68-.18-.37h-.55l-5.83-.73-4.38-.9-.54-.18-.37.54-3.1,4.7-1.82,2-.36-.36ZM1214.46,49.12l.55.72.73-.72,2.19-2.17.18-.18v-.18l2.73-13.72,3.28-6.32.19-.54-.37-.36-3.64-5.06-.37-.36h-.55l-9.29.72h-.37l-.18.36-5.65,8.31-.18.18v7l.18.18Zm-61.8,106,.37.36.54-.36,3.47-2,.55-.36-.19-.72-1.27-4.16-.18-.72-.73.18-4,.73-.55.18-.18.54-1.28,3.43-.18.72.54.36,3.1,1.81Zm-125.78-8.49.18.54h.55l18.05.18h.54l.18-.54,5.29-9.57.18-.36-.18-.36-3.46-7.41-.55-1.26-.91.9-3.47,3.79-6.92-.54h-.55l-.36.54-1.83,2.89h-4.19l-.18.73-.55,3.25-4-.18h-1.46l.55,1.26Zm-45,19.87v.18l.18.18,3.65,4.69L987,176.8l.18.54.54.18,7.84,2.17h.37l7.29-.54h.91v-.91l-.55-6.5,4.2.54h.54l.37-.54,3.65-6,4.19.91.54.18.37-.36,3.28-3.62.55-.54-.55-.54-3.28-3.25-.18-.18H1017l-6.74-2-4.56-5.24,2.55-.72,3.83,5.78.19.36h.36l7.84,1.63,1.09.18V157.3l.18-8.85v-.18l-.18-.18-2.55-4.34-.18-.36h-.55l-9.3-.54h-.36l-.18.18-4.56,3.25-7.11-1.08-.91-.18-.18.9-.55,4.87v.37l.36.36,3.83,4-1.27,1.45-6.38-5.24-.37-.18H991l-8.39.72h-.73V153l-.55,6.68v.18Zm-204,24,.55-.36,2.55-1.44.73-.36-.36-.72L779.5,184l-.36-.9-.92.54L774,186.37l-1.09.72,1.09.73,3.47,2.52Zm-5.65,1.63-.55,1.08L770,196.48l.37.37,1.64,1.8.54.72.73-.54,2-2,.73-.55-.55-.72-2.37-2.53Zm201.26-20.77v.18l.18.18,4.74,5.6.36.54.55-.18,2.92-1.26.91-.36-.55-.9-3.65-6.51-.18-.18-.18-.18-5.47-3.25L971.28,164l.36,2,1.83,5.42ZM767.29,99.69l1.46.18-.37-1.45-2-6.68-.19-.54h-.72l-6.2.18h-.73v.72L758,97l-.18.9.91.18,8.57,1.63ZM670.12,77.11l-.54-.54L666.84,74l-.73-.72-.73.72-2.73,3.43-.73.91.91.54,3.28,1.62.55.37.36-.55,2.19-2.52ZM866.46,233l-.18.73-2.19,5.23-.18.55.54.36,5.47,4.33.73.54.55-.9,2.55-4v-.36l.91-3.25.18-.55-.54-.36-3.1-1.8-.18-.18h-.19l-3.64-.54Zm-73.83-69.34.18.36,2,6.86.37,1.26,1.09-.9,8-6.5,8.39-.54H813l4.93-4.88.18-.18v-.36l.55-10.65v-.37l-.18-.18-4.93-6.14-.55-.72-.72.72-3.47,3.43-1.27-1.44.36-6v-1.62l-1.46.72-7.11,3.79-.36.18V141l-1.1,13-4.92,9Zm31.35.54.18.54.55.18,6.56,1.45,1.28.36-.18-1.27-.37-2.53v-.36l-.36-.18-6.56-4-.92-.54-.36,1.08-.37,1.45v.36l.55,3.43ZM620.72,73.32l-.18.9-.73,2.53-.18.72.54.37,2.74,1.62,1.27.72V78.74l.19-3.43v-.73l-.73-.18-2.19-.72-.73-.36ZM1433.22,514l-.37.72L1431,518.3l-.18.36.18.36,1.82,3.07.37.54.73-.18,2.73-.9.55-.18v-.54l.55-5.06.17-.72-.72-.18-3.46-.72-.55-.18Zm-9.48-79.46-.55-.55-.55.55L1421,436l-.18.18v.18l-.54,2.71-.19.72.73.18,4,1.45.55.18.36-.36,2-2.35.54-.72-.72-.55-3.83-3.07Zm10.94,63.92-.19-.36h-.36l-2.19-.36h-.55l-.36.54-1.83,3.62-.17.54.36.36,2.91,4.15.55.91.73-.73,3.46-3.25.55-.54-.36-.54Zm-7.48-41v-.54l-.72-10.84v-.36l-.19-.18-3.1-2.89-.17-.18h-.19l-3.29-.9-1.09-.36v1.08l-.91,10.84v.36l.19.18,4.19,5.42.36.54.74-.36,4-1.81Zm-1.63,8.31-1.1-.54-.18,1.08-.55,4v.18l.18.18,1.82,4,.36.72.74-.36,5.1-2.35.36-.18.19-.36.73-2.71.18-.72-.72-.36-7.11-2.53ZM336.34,210l-.19-.18-1.82-1.45-.73-.54-.54.72-1.46,2-.18.18v.18l-.19,2v.36l.37.36,1.82,2,.55.54.54-.36,2.56-1.63.54-.36-.18-.54-.73-2.89Zm525,35.94h-.54l-3.83-.18h-.55l-.36.36-2.19,3.25v.36l-.55,2-.18.36.18.36,1.83,2.17.54.54.73-.36,6-3.8.54-.36-.18-.72-1.46-3.61V246Zm495.85,16.61-3.65-.54-.72-.18-.19.72-2.74,8.31-.17.54.36.36,10.57,11.74,1.46,1.45.18-2,1.46-16.8v-.54l-.55-.18Zm81.49,29.8-.19-.36h-.36l-7.84-.91h-.36l-7.3,1.63-1.27.36.72,1.08,2.74,4.16.19.36h.36l10.57,1.62h.37l.18-.19,4.19-2.16.91-.36-.55-.73-2.36-4.51ZM1414.26,438.3l-.73.54-4,2.53-.55.36.19.54.55,2.71v.36l.36.18,3.65,2.35.9.54.37-1.08,1.83-4.34.17-.36-.17-.36-2-3.25Zm24.79,89.21-.18-.36-.37-.18-3.82-1.09-.55-.17-.36.36-2.92,2.89-.37.36.19.54,2.18,6,.37.72.73-.18,6.56-1.81.92-.18-.38-.9-2-6Zm-15-94.27-.18-1.81-1.83-23.65-2.55-10.84v-.18l-.17-.18-7.66-7.59.72-10.83,3.84-3.07.72-.54-.55-.72-13.3-15.36.18-10.11,5.47-6,.37-.36-.19-.36-1.45-6.14-.19-.54-.55-.18-11.11-3.25-11.12-19.51,1.46-.9,3.1,4.33.54.73.73-.36,5.65-3.62.91-.54L1396,311l-8.75-8.31-.55-.36-.55.36-4.37,2.35-7.11-4.52-.18-.18v-.18l-3.46-8.3-.19-.55h-9.11l-.18.72-.73,4.69-3.65-.36-15.86-31.42.91-9.21,5.84-1.27.91-.18-.19-.9-4.18-16.43,8.2,6.5,1.46,1.08v-1.81l.17-22.21,7.66-7.76,11.85-.18h1.28l-.55-1.27-6.93-16.61-3.28-35.94v-.9l-2.73-25.65v-.54l-.37-.18-5.83-3.25,15.68-10.84.55-.36-.19-.54-2.36-7.76-.19-.55h-.55l-31.36-2.52h-.54l-.36.36-3.65,4.69-8.21.72h-.72l-.18.73-.91,5.78-5.29-.36V109.8l7.29-2.35.36-.18.19-.36,3.1-6.32.17-.18v-.18l-1.63-16.79v-.55l-.55-.18-3.09-1.26-.38-.18-.36.18-2.55,1.62-.19-4.69V77.11l-1.08.36L1311.81,80l-4.38-4.87,1.46-7.23,5.1,4.34.55.54.55-.54,2.92-2.35,4.73,5.06.92,1.08.55-1.26,3.09-7v-.36l-.72-7.94,5.1-4.16,9.66.9h.36l.37-.18,16.59-12.46.73-.54-.55-.72-2.55-2.89,6,.9,1.1.18V39.37l-.19-7.95V30.34l-1.09.18L1353.74,32l-2.38-5.06-.17-.36h-.36l-10.76-2.17,3.82-4.69.55-.73-.91-.9-5.1-3.61,4.73-3.25.73-.55-.55-.72-7.1-9.39-.55-.54-.72.36L1314.72,12.1l-.36.36v.36l-1.09,9.39L1308,29.08l-.72.9,1.09.36L1320,35l-5.3,2.35-21.51-5.78-.36-.18-.37.18L1267,48.4l-38.1,20.41-.18.18-.18.18L1218.29,85.6l-.18.36v.36l.73,4.16-6.2,1.62h-.18l-.18.18-9.85,8.67-.55.54.55.73,6.93,8.48.36.55.55-.19,5.83-1.8,8.39,4.69-.73,8-7.84.9h-.18l-.18.18-5.29,3.07-11.67-7.22-1.27-.9v16.43l-12,8.85-.18.18-.18.18-4.74,9-.36.72v.36l-2.37,4.52-12.22,6.86-9.11-8.49-.18-.18h-.37l-9.48-.9h-.36l-.19.18-13.49,8.67h-.18l-.18.18-9.3,11.38-.18.18v.18l-3.28,11-5.47,1.63-7.29-3.61-.19-.18h-.18l-7.29.72h-.36l-.19.36-3.28,4.15-2.55-2.16-.73-.54-.55.54-2.55,2.71-2.55-2.35,6.2-6.14-2-.18-12.76-.91h-.36l-.37.18-7.29,6.33-.36.36.18.54,3.83,13.18-5.47,5.24v-9.39h-6.2l-.18.18-3.83,3.43-.73-3.43,6.93-6.32,1.82-1.63-2.55.18-7.84.54h-.36l-23.34,11.74-.91.55.73.9,4,4.87-6,5.78-.54.55.36.54,2.55,4.69.37.72.73-.36,3.64-1.8.37,5.6v.36l.18.18,4.74,5.6-7.48,1.8h-.36l-.18.18-2.55,3.61-.37.37.18.54,2,4.69-5.83.9-9.3-2.7-.91-.18-.19.9-2.55,9.75-15.31-2.71-1.09-.18v23.66l-10.21-1.63-16.59-14.8L976,251l.73-.54-.55-.72-10.75-15.71-.19-.18-.18-.18-6.93-3.26-.36-.18-.37.18-10.2,3.44-11.31-4.34-1.09-.36-.18,1.08L933,247.59l-20.23,8.49-7.11-4.88,1.09-3.61.37-1.08H906l-21.7-.18H884l-.18.36-5.66,7.58-.18.18v.19l-.36,1.44-.73-3.61V251l-4-3.61-.73-.54-.55.54-4.74,4.88-6,2.89-.37.18-.36.18-.55.18-6.2,3.07L846.41,264l-9.67,2.7-.36.19-.18.36-2,3.61.18-5.6,19.51-20.05v-.18l10.94-19.5v-.36l4.92-17.52.18-.54-.36-.36-15.32-17.16-.18-.36h-.36l-14.22-.54h-.55l-.36.36-4.74,6.68-3.83.72,3.83-10.65.36-1.08-1.09-.18-10.21-1.27,2.92-4.15.54-.72-.54-.55-7.11-6-.37-.36-.55.18-6.56,3.44-.18.17-.18.19L800.65,190.7l-.18.37.18.36,2.19,7.94-9.85.73h-.91v.9l.18,2.89v.18l.19.18,2.73,4.15-5.65-1.26-.37-.18-.36.36-3.65,3.43-8-1.44L776,205.88l-.18-.73h-.73l-12.77.18h-.91v.91l.19,6.5-14.77,2h-.18l-.18.17L736.3,223l-7.84.18h-.37l-.18.18-6,5.24-.19.18v.36l-2.55,10.66v.36l.18.36,4.38,7.94-6.38,1.63-20.06-3.25-11.66-.18h-.55l-.18.54-3.65,6.32-.18.18v.18l-.55,16.44v.36l.37.18,7.29,6.86,2.92,6.86H682.7l-8.57-15.71-.18-.54h-.54l-6.39.36h-.73l-4.74.36H661l-.18.54-2,7.05-6.74-6.14-1.1-.91-.36,1.27-2.19,7.22-.18.54.36.37,8.21,8.66.36,5.42-13.31-11.74-.36-7.76,6.2-7.59.18-.18v-.36L650.8,253l.18-1.44-1.27.54-2.55,1.26-.37.18-.18.36-3.1,8.31-4.38,4-4.74,1.45H634l-.18.18-4.74,7-.19.18v.36l.19,18.42L617.62,311.7l-.18.18v.36l.73,11v.9h12.4l9.29,11v10.47l-6.74,8-.37.36.18.54,1.83,3.79.18.19.18.18,3.47,2-7.11,1.63-2.56-9.39,7.48-12.83.18-.36-.18-.36-3.28-9.93-.19-.54h-.54l-11.67-1.63h-.36l-.37.36-6.38,6.15-.18.18v.36l-.73,13.54-10.39,10.47-9.48,3.44h-.18l-.18.18-6.2,6.5-21.33-13v-4.7L578.61,357l.36.18.37-.18,7.84-3.07L599.76,346l.18-.19.18-.18,8.57-17,.18-.18v-.18l-1.46-9,14.41-34,1.64-6V279l-1.64-7.23,9.11-8.67.18-.18v-.36l1.82-12.46v-.36l-.18-.36-6.38-8.49,6-.72.91-.18-.18-.91-1.1-9v-.72h-.73l-7.47-.54h-.91v.9l-.55,6.69v.36l.91,2.16-2.91-1.08-.55-.18-.37.36-7.1,5.42v.18l-8.57,10.84-6.38,6.14-9.85,2.34h-.18l-.18.18L581.89,268l-.55.54.55.54,4.92,6.32-5.28,9.39L574.05,287l-.54.18v.54l-.19,3.62v.36l.19.36,6.56,6.68-2.19,6.14-.18.18v.36l1.27,4.16v.36l2.19,3.07-7.47,6.86-2.19-3.43-2.37-9.93v-.37l-9.3-14.8-.18-.37-.18-.36-5.29-8.85-11.85-12.64-.18-.36H531.94l-.18.72-1.28,5.24-.18,7.22-5.65,3.44-3.28-.73-.55-.18-.36.55-1.83,2.7-2.91-2.34,4.37-4,.37-.18v-6.5h-.91L503,274.5l-8-6-.19-.18h-.36L482,269.44l-3.28-4.51,6-.54h.54l.19-.36,4-7.77.54-1.08-1.09-.18-10.21-2.35-.55-.18-.36.36-4,4.69L472,254.46l-.19-.37-.36-.18-26.25-6.32-.55-.18-3.1,3.07-3.1-2.89-.54-.36-.55.36L424,255.36l-6.19-6,2-5.6.18-.36-.18-.36L418,237.84l7.29-2.35,7.47,5.24.73.54.55-.72,3.83-6.14.18-.18v-.18l-.18-11v-.36l-.18-.18-10.4-11.38L426.21,210l-.36,1.44-2.92,10.84-14,9-.36.18v.36l-1.1,6.86-6.2,5.6-.36.36-.36.36-.37.37L393.76,251l-2.19-4.15,3.65-.72,1.09-.18-.54-1.09-6-11-.36-.54-.55.18L380.09,235l-8.93-3.07h-.37l-11.12,1.63h-.55l-.18.54-5.83,14.44-3.46-2-6.2-14.45.91-11.38V219.6l-1.09.18L332.87,221h-.54l-.19.55-2.91,9.93-.18.36.36.36,4,4.88L330,241.63l-5.84-3.25L323,230.8v-.91l-.55-3.79.73-3.07v-.36l-.18-.36-2.73-3.79,2.55-4.7,8.57-10.65,7.1-2.35.37-.18.18-.36,4.19-7.23v-.36L344.9,182v-.36l.19-1.09,1.64-9.93,1.46,2-1.1,8.12V181l.18.18,3.47,7.41.91,12.28V201l.18.18,4.92,7.4,1.1,7.59v.36l.36.18,18.6,11,.36.18h.37L389,225.74h.37l.18-.36,8.57-11.56.18-.18v-.18l2.37-12.28v-.36l-3.83-14.45.55-21.13v-.36L395,157.12v-.37l-5.84-9.21-.91-6.5,1.46-.9,3.1,4.34.55.72.73-.54,3.64-2.35.73-.36-.36-.73-3.28-6.32-.19-.18-.18-.18-12.58-8.49-.18-.18h-.18l-18.05-1.62h-.36l-.19.18L359.49,127l-8.93,5.23-.55.18.18,7.41L344.36,149l-11.67.18h-.36l-.19.36-3.82,4.88-.37.36-1.64.54-.18.18-9.84,12.28-4.74-.18h-.37l-.18.18-6.38,4.33-4.56-.18h-.55l-.18.55-1.82,4.69-2,3.79L291.31,184l.36.73,1.83,3.43-1.83,1.8-8.38-1.26-.73-.18-.18.72L280,197.57l-1.64,11.92-4.56,1.8-23.15-3.07-10.57.36h-.73l-7.84.36h-.37l-9.84,3.62-.55.18v.54l-.55,7.76v.37l.73,3.07-1.45,1.26-1.64-4.33-.19-.55h-.54l-3.47-.18L208,215.27l-.55-.54-.54.36-7.11,4.51-4.74.54-.91.18-4.56.54h-.18l-.19.18-7.29,5.6h-.18v.18l-4,5.42-7.84-.36h-.55l-.36.54-4.74,8-5.47.72h-.73v.72l-.18,6-8.39,5.42-.36.36v.54l.55,8.31v.36l.18.18,3.1,4-3.65,4.33-.36.36.18.36.91,4-.55.36.55.18,5.1,1.26,1.1,5.06-1.64,2.89-.19.36-.36.54-.18.36-.73,1.45-7.66,4.33-.18.18-.18.18-4,6.32-4.2,8.67v.36l-.54,7.05v.36l1.09,3.79-2.73,3.43-.19.18v.36l-.18,2.53-6.2-.54-4.19-4,.37-3.8v-.72l-.73-.18L119,316l-.73-.18-.36.72-2.56,6.14-9.29,7.94-.37-.18V331l.73,5.23.18.72h.73l4.74-.18,3.28,2.71,1.28,6.32.18.73h.73l4.19-.54,4.2.72v2.34L120,357l-.36.54H119l-4,1.63-.37.18-.18.36L113,363l-2.37.54-.54.18v.73l-.18,4.69v.54l.54.18,3.47,2-.92,8.31v.36l-.18.18-3.46,4.15-1.64,2.53-.18.36v.36l.73,3.62v.36l.36.18,2.92,1.44-.37,4.88v.54l.55.36,8.57,5.42.18,9.93V415l.18.18,7.11,13.36.18.19.37.54,1.82,3.61-.37,7.95v2.7l-6.56-.18h-.55l-.18.37-2.55,4-3.46.36h-.37l-.18.36-4.37,7.77-6.75,2.52-5.1-7.4-.19-.36h-.36l-12.76-1.63H86l-.36.36-6,6.14-.73.73.92.54,11.66,6.86-2.18,1.45-6.2-3.8-.55-.36-.55.36-3.64,2.89v-.36l-.18-.18-8.76-7.76-1.27-1.09L68,456.9,66.9,467l-3.64-1.8-.19-.18h-.18l-9.11.55h-.37l-.18.36-2.55,3.25-6-9.93-.54-.91-.73.73-5.29,4.69-.36.36v.36l.54,7.95-2.37,2.71-.36.36.18.54L37,479.83l.18.19,3.46,2.52L40.47,488v.36l2.19,9.21-.73,8.67-1.64,14.27v.36l.18.36,1.82,2.53.37.54.73-.36,3.1-1.27,2.18,3.44.37.54.18.18,5.65,9.57v6l.18.18,5.84,6.32.73.72,4.74,5.24.18,7.22v.18l.18.18,1.46,2.35.18.18v.36l.37,8.13v.54l.54.18,9.12,4.34v2l.18,1.81v.36l.36.18,2.56,1.81.18.18v.18l1.64,4.51.73,3.43-2.55,2.53-.37.37v.36l.55,7v.18l.18.18,6.56,9.21-.54,9.57-1.1,4.7-.18.36.37.36L93,635l.37.55.54-.19,2.92-1.26.36-.18.19-.18,1.27-2.17,2.74,1.45,3.83,1.26.36.18.36-.18,4.56-2.89.37-.18V618.35l3.1-17.34,11.3-10.65.18-.18v-.37l.91-11.37v-.36l-1.09-4.34,5.1-3.79.18-.18h.19l7.47.18h.37l7.1-3.25h.19l.18.18,7.47,2.71h.37l20-.54H175l-.19-1.09-1.45-6.86,4.19-.72.54-.18.19-.54,3.83-21.13v-.36l-.19-.37-3.28-4.51-.18-.18h-.37l-4.19-.9.55-2.89,6-5.42.55-.54-.55-.73L175.55,516l1.82-.9,3.47-1.45.36-.18.37-.18,8-2.71.54-.18.19-.54,1.09-5.78,6.38-3.61,7.29-1.81,2.56-.72,4.19,4-.37,4.16-1.09,3.61-.18.36.18.36,2.55,4.7.37.72.73-.36,5.28-2.35.37-.18.18-.36,2.55-5.06,2.74-2.89,6.92,1.27h.37l.36-.18,3.83-3.07,2.19-.18,1.82,1.44.18.18h.37l7.29-.54,5.47-1.44,3.1-.73-.18,5.06v.36l2.91,6.86.37.73.73-.18,3.28-.73h.18l.18-.18,2-1.8,4,1.8-.18,2.53-1.28,2.89-.18.54.36.36,1.64,1.81.19.18h.18l4.37,1.45,1.83,6.14,1.82,7.94-2,4.88-.18.36,2.37,4.51.37.91.91-.55,5.1-3.07,1.64.55,1.46,3.07,1.09,6v.36l.37.18,3.65,2.53.54.36.55-.36,4-2.71,3.65.18,6.92,3.07-.18,2.89v.18l.18.18,1.64,2.89.19.36h.36l3.83.72h.55l.36-.36,2.55-2.71,2.74,2.71h.18l3.83,2.35-.91,6v.36l.91,3.79v.18l.18.18,4.19,4.7.19.18h.18l3.64,1.26.37.18.36-.18,3.28-2,2.19.72,2,4,.18.36.36.18,8.75,2.89.37.18.36-.18,3.83-2.89h.18v-.18l3.83-5.41.37-.37-.19-.54-6.74-14.63-.18-.18,2.55-3.25,8.57-.72h.73v-.72l.72-6,3.65-2,4,.18,5.29,4.16.54.54.55-.54,3.28-3.07.55-.55-.37-.54-4-6.5-1.82-6,4-4.15,3.28-.91,5.84,6.15.18.17h.36l12.76.72h.73l13.31,3.07,7.48,4.69.54.37.55-.37,4-3.25,6.2,3.25h.36l22.42,4.34h.37l.18-.18,8.21-3.62.36-.17h.18l6.2-.18,5.29,8.66.18.36h.36l4.38.73h.55l.36.18,2.92.9.18,5.06-1.82,2.16-.37.36.18.55,1.28,3.79-4.37,5.06-.37.36.18.36.91,4,.19.54.54.18,9.67,2.17.36,4.88v.72h.73l4.92.18,3.46.9,3.1,3.43-4.74,4-.36.18v5.41l1.09-.36,5.11-1.62,4.37,2.35.37.18h.36l4.19-.91h.19l.18-.18,3.46-2.89,10-1.8h.73l10.39.18L540,603.9l-.54.54.36.54,10.39,16.8.18.18v.36L561.84,677l.18.9.91-.18,6.2-.9h.36l.19-.36,3.83-5.6,2.91,1.26,1.1,6v.37l.36.18,13.13,7,.36.18.37-.18,9.84-3.61,4.92,2.17,3.83,7.76.18.36v.36l.91,8.13v.54l.37.18,7.11,4,.18,7.59v.72l.73.18,7.29,1.63L630,719.3l.55.54.72-.36,7.66-4,1.46,4.87v.36l5.47,8,.18.36h.36l8.57.9h.55l.18-.54,2.37-5.24,10.94-.36h.36l.19-.18,7.65-5.6.37-.18.36-.18,30.45-11.37,10.39-.73,1.64,2.35.18.36H721l15.86,3.43,1.1,6.69v.36l.36.18,6.2,3.07h.36l17.32,1.8,6.57.91,3.28,3.07.36.36.55-.18,5.47-1.81h.18l.18-.18,4.93-4.15.18-.18v-.18l3.64-8.67.18-.54-.36-.36L781.69,705l.73-9.93L785.7,694l.55-.18v-.55l.18-4.15,4.19-.18h.73l1.46-5.6,19.87,7.95,18.05,4.15,3.64,14.09.18.36.37.18,13.49,7,.18.18h.19l9.47-.18h.19l.18-.18,13.31-7.76,10,3.25h.37l10.39-.73,2.55,4.52.18.36H896l6.38.18h.91l3.47.18,3.82,7,.19.37h.54l31.17,2.89h.37l.18-.19L963.8,714.6l6.38-.18h.55l.18-.54,2-6.68,9.84-9,13.49-.72,4,3.79.55.54.55-.54,5.65-5.06,24.79,4,.73.18.18-.73,3.47-9.39,8.38-5.78.55-.36-.18-.72-3.47-8.49,3.65-23.11,6.2-6.14.36-.36-.18-.55-4.19-11.37-.19-.55h-.54l-7.66-.73,5.65-10.47,11.12-7.59.37-.18.36-.18,15.86-8.12,12,4.15h.37l14.58-2.35,21.51,21.13,27.16,27.81.37.36.55-.18,10.39-4.15,6.38,2.89.36.18.37-.18,4.37-2.17,8.75,2.71h.37l4.92-.54,7.11,11v.17h.18l7.66,6.68.36.36.55-.18,16.22-7.77.37-.18.18-.36,2-6.5,11.85-13.18,6.2-2.89,6,9.75-2.19,7.22v.37l.18.36,3.83,11,.18.18v.36l-.91,27.45v.18l.18.19,4.38,7.22-18,1.44h-.55l-.18.55-6.38,13.9-.18.54.36.36L1242,741.69l.36,6.5.18,1.81,1.28-1.27,9.67-9.2,16.77.18h.36l.18-.18,12.4-9.94.18-.18v-.18l7.29-14.63v-.36l3.65-40.09,4.92-20.95v-.36L1296,628.28v-.72l2.18-27.81v-.36l-3.09-8.67-13.85-27.81v-.18l-4.38-5.24-4-19.32V538l-2.19-5.06,11.49,6.14,4.37,11.56V551l6.93,8.67,8.38,13.18,6,9.57v.18l.18.18,6.74,5.06,2,6,1.83,5.42.17.36.36.18,8.21,3.79,1.09,8v.18l.19.18,8.75,11,1.46,1.81.18-2.17.73-9.75v-.36l-1.1-6.32,6-.36h.36l2.19-1.09,6,3.07,2.37,1.27-1.1-2.35-5.28-10.84-.18-.54h-8l-7.84-3.43-8.93-6.32-5.84-14.81-3.1-9,6.39-3.61,13.12-.72,2.55-.18-2.19-1.45-29.89-20-23.34-17.34-9.66-18.06-.19-.18-.17-.18-13.31-9-6-7.58-.36-.55-.55.36-4.2,1.81-.36.18-.19.36L1246,490l-.18.54.55.36,7.66,5.24,3.82,5.78L1256.2,504l-3.27-.72-.91-.18-.19.9-1.28,5.42-.17.54.55.37,7.47,5.59,6.56,15-8.76-3.61-3.1-3.61,2.93-5.6.36-.9-.91-.36-7.65-3.07h-.19l-15.86-2.89h-.36l-.19.18-12.39,6.32-.37.18-.18.36-3.83,16.79-4-5.23-.73-.91-.73.91-4.92,6.32L1199.7,523l-.37-1.09-.91.54-10.21,6.14-7.66-1.26.37-7.4,11.3-28.18v-.36l2.92-28.17,3.28-13.55v-.36l-2.73-11,3.64-9.94V428l-1.64-10.47L1221,394.77l7.11,1.27.73.18.19-.72.72-2.89.19-.36-.19-.37-1.64-2.52,2.56-1.63.18-.18.55-.36,6.38-4.15,4.19-3.44,5.83-1.44.73-.18-.18-.72-1.83-11.2,9.66-3.07h.19l.19-.18,7.83-6.86,5.29-.18-4.37,6.32-.38.72.55.54,5.29,4.52.73.54.54-.72,7.66-8.49.19-.18v-.18l1.81-13,6.39-2.34.19-.18.17-.18,5.48-7.05.55-.72-.74-.54-5.65-4.15-.74-.55-.53.73-4.38,5.42-4.37-4-1.47-24v-.36l-4.37-14.27,1.46-10.11,8.39-11.92,4.55-.18h.55l.17-.54,1.83-5.42,9.3,12.46.36.36h.55l7.11-1.26.74-.18v-.72l.54-5.24v-.36l-1.64-10.66-1.83-7.4,4.38-4.16.55-.54-.55-.72L1296.86,233l2.55-8.49,8.75-3.07-4.74,7-.19.36v.36l1.47,7v.37l.36.18,9.3,6.32.18.18h.18l3.47.18-.18,5.78v.72l.72.18,3.29.72-3.65,18.06v.36l.19.36,4.18,6.87,1.47,21.67,3.28,14.08,4.38,13.73-4.93,5.24-.36.36.18.54,1.46,5.06-2.55,3.43-.38.54.55.54L1333,350l1.1,13.18v.36l.18.18,10.21,11.38.55.54,11.49,12.82h.17L1422.28,432ZM256,225.92l-2.56,2.89-.18.18v.36l.36,5.78-.72,4.88-3.65,2.71-.18.18v.18l-1.1,2.71-7.29.18-2.92-4.16-.18-.36h-7.29l-1.64-2,11.85-14.26.18-.18v-.36l-.36-7.23h.18l5.65-1.08,7.29,1.08,2.74,4Zm38.1,17.16-4,4L282.92,255l-.18.18v.18L280.92,262l-.18.36-3.1,2.89-6.2-.36-2.37-2.53h2.37l.18-.18,3.28-2.53.19.36.18-.72.18-.18-.18-.18.18-.54.91-2.35v-.36l-.54-7.23,2.55-5.05,9.48-10.12,5.28,1.27,1.64,2.89-.73,5.6ZM910.39,639.3l-3.28,3.07-.18.18v.18l-1.1,2-.18.36.18.36,1.1,3.61-1.28,3.25-3.28.9-.55.18v.72l-.18,4-4.55,7.22-6.75,2H890l-.18.18-4.37,6-4.93-.36h-.72l-.19.72-1.46,7.58-3.82,4.16L861.9,691h-8l-1.46-3.08,3.28-2,4.92-.72h.19L861,685l10-6.87.18-.18.18-.18,3.65-5.42,7.47-6.68.18-.18v-.18l1.64-4.87L888.7,653,894,644.9v-.18l4.56-12.47.37-1.08,2.73-7.95.73-2.16.55-1.45,2-11.92,2.92-5.23,3.46.36L912,607l-2,10.66V618l.73,10.47v.18l1.64,5.6-2,5.06ZM1433.77,556v-.18l-.19-.18-2.91-4.51-.55-.9-.73.72-3.29,3.25-.17.18v.36l.17,6.86.19,7.23.19,3.25v.9h4.91l.19-.54,2.91-8.13V564l-.72-8Zm-8.58,63.75v-.18l-.17-.18-2-2.71-.55-.9-.74.72-1.81,1.81-.19.18v3.79l1.09,2.71.36.72.74-.18,3.46-1.26.72-.18-.17-.73Zm-14.57-6.14-.38-.18-.36.18-3.46,1.63h-.19l-2,1.44-.55.36.19.55,1.64,5.23-.54,6.69v.36l1.64,4.69.36.9.91-.36,1.64-.72.55-.18v-.54l.72-11.92,2-2.17.18-.18v-.18l.36-3.25v-.54l-.54-.36-2.18-1.45Zm12.21-26.18,2.55-4,.19-.36-.19-.36-1.09-4.51-.19-.73h-.72l-3.46-.18h-1.1v1.09l.36,3.07-2,1.8-4.2,4.34-.19.18v.36l.38,10.47,1.27,8.49v.36l.37.18,1.63.72,1.1.55.18-1.27.55-4.87.91-6.5.36-4.88,3.29-4Zm-774.95-343-.54.18-2.74.91-.73.18.18.9.92,3.43.18.54h.55L649,251h.73l.18-.72.54-2.17.19-.54-.37-.36-2.18-2.35-.19-.36ZM639.5,80.72l-.18.37-2,2.89-.36.54.54.54,2.92,2.71.55.54.54-.54,3.1-2.53-.73,1.08-.54.73.72.54,2.19,1.8.37.36.55-.36,3.82-2,.37-.18.18-.36,1.09-4.52.18-.9-.91-.18L649,80.54l-.55-.18-.36.55-2,2.71-.18-.19-2-2.89-.36-.54-.55.18L640,80.9Zm812.68,203.35-3.1-.72h-.18l-.19.18-7.83,2.89-1.28.54.91.9,3.64,3.62.55.54.55-.54,7.29-5.78,1.46-1.09ZM639.13,69l-.91,1.44-1.09,1.81-.18.36V73l.72,3.07.37,1.26,1.09-.72,2-1.44.54-.36-.36-.73-1.64-3.43Zm13.49,26.54L653,95l-.37-.54-1.82-3.07-.73-1.08-.73,1.08-2,2.53-.37.54.37.54,2,2.89.73,1.08.73-.9Zm4-30.15v.36l.37.18,3.64,2.34.73.55.55-.73,2.19-3.25.36-.36-.18-.54-2-4-.36-.73-.73.37-4.37,2.16-.55.36.18.73Zm-8.56,9.75.36.18,6.93,2.35.91.36.18-1.09.91-5.23v-.55l-.36-.36-6.93-6.14-.55-.54-.54.36-5.47,3.8-.73.54.73.72Zm-11.85-15.9.54.91.73-.73,2.92-2.88-.73-.55L636,52.73l-.91-.9-.55,1.08-.91,2.17-.18.36.37.36Zm29.89,1.45.18.18,1.83,1.62.54.55.55-.36,2.37-1.81.73-.54-.73-.72-3.46-3.26-.55-.54-.55.54-1.82,1.45-.55.54.37.72ZM507.88,219.78l.18,1.63,1.28-.91,3.1-2.16.36-.18V212l-.73-.19-3.65-.9-1.09-.18V212l.55,7.76ZM613.06,53.46v.36l.19.18,3.28,2.53.18.18h.37l4.37-.37,2.73,2.17.73.54-3.64.55h-.37l-2.37.9-4.92-1.45-1.09-.36-.18,1.09L612,63.57v.36l.37.36,3.46,3.43,3.46,4.34.91,1.08.73-1.08,1.1-2,.18-.36v-.36l-.73-3.43,3.64-.91,5.84,2,.55.18.36-.36L635.67,63l.55-.55-.55-.54-3.46-4-.19-.18h-.18l-2.92-1.08-.54-.18-.37.36-2.91,2.16h-.19l.55-.72,1.82-2.16.55-.73-.55-.54-3.64-3.25-.37-.36-.54.18-2.92.9L613.06,48l-1.82-1.27.55,2.17,1.27,4.51ZM89.14,223.57l.37.91.91-.37,10-5.23.36-.18v-.54l.91-19v-.36l-.18-.18-4.74-7.4-1.09-1.63-.55,2L93.34,199l-3.47-2.17L86,186l-.36-1.09-.91.55-4.56,2.89L74,188l-1.45-.18.54,1.26,16,34.49Zm369.52,15.71.18.37h.37l9.66.18h.73l.18-.73,1.09-3.61v-.36l-.54-5.42v-.36l-.19-.18-5.1-5.42-.37-.36-.54.18-7.29,2.53-.37.18-.18.36L454.47,233l-.18.37.18.36ZM634.58,71.51l-.37-.9-.91.36-4.92,2.53-.91.36.54.73,3.1,5.23.55.9.73-.72L636,76.57l.37-.36-.18-.54-1.64-4.15ZM513.89,212.38l.19,7.22-4.74,4.7-.37.36.18.54,3.83,8.49.19.36h.54l3.65.54.18,3.07v.72l.73.18,4.92,1.09,3.28,1.62,1.1.54.18-1.26,2.19-21,1.64-7.77,6.56-7,8.2-2.71.37-.18.18-.18,3.28-4.69.18-.36-.18-.37-1.09-3.43,4,2.53.18.18h.37l5.65-.54h.54l1.28-4,2.92.18h.91v-.91l.18-2.89,3.28,1.27.91.36.18-1.08.55-2.53,2.19,2.35.73.72.73-.9,2.55-3.25.18-.18V184l.55-3.61,3.64,2.53.55.36.55-.54,2.73-2.53,6,1.27.55.18.36-.37,5.11-5.77,40.28-.91H637l.18-.18,9.66-5.24.36-.18v-.36l1.1-7.22v-.36l-.18-.36-4.2-4.88-.36-.36-.55.18-9.66,2.53-.37.18-.18.36-1.46,3.07-15.86-1.26-6.92-6-.55-.37-.55.37-6,3.43-6-2.53-.36-.18-.37.18-7.84,5.06h-6.74l-.18.18-2.74,2.16-3.83-4.15-1.09-1.26-.37,1.62-2,9-4.38.18h-.72l-.19.72-.54,3.25-11.67,3.62-4.19-1.81-.55-.18-.36.54-2.74,3.25-.55.54,3.47,3.44-4,3.61L536,182.22l-1.09-.36-.18,1.08-.91,5.24-5.11-.18h-.91v.9l-.18,4.15-7.29,3.8-4.75-1.63-.36-.18-.36.36-5.66,4.15-.36.18v.37l-.36,6.14v.36l.36.36ZM536,250.66l-.91.18-6.74,1.63-.55.18-.18.54-1.1,6.32v.36l.19.36,4.19,6.87.36.54h.55l5.29-.54h.73v-.73l.36-7.22v-.36l-2-7.23ZM40.65,451.3,29,436.13l6.92-19.32-6-4.88L25.52,415,8.39,403.44l-2.74,4.34.55,13.36L0,428l2,10.48,11.49-.72L25.7,452.93l9.12,5.41.55-.54Z"></path>
</svg>
