<svg xmlns="http://www.w3.org/2000/svg" id="Слой_2" data-name="Слой 2" viewBox="0 0 208 40">
    <defs>
      <style>.cls2-1{fill:#FFF;}.cls2-1,.cls-3{fill-rule:evenodd;}.cls2-2{fill:#0eb1b8;}.cls2-3{fill:#fff;}</style>
    </defs>
    <path class="cls2-1" d="M74.17,15.59a6,6,0,0,0-6-5.89H59.26V30.3h3.48V22.57h5.45a6,6,0,0,0,6-5.89Zm-6,3.9H62.74v-6.7h5.45a2.84,2.84,0,0,1,2.86,2.8v1.09A2.85,2.85,0,0,1,68.19,19.49ZM141.7,30.3H145V9.07H141.7Zm-4.09-9.18c0-3.86-2.62-6.16-6.4-6.18a7.54,7.54,0,0,0-6.84,3.65l2.8,1.56A4.33,4.33,0,0,1,131,18a3.19,3.19,0,0,1,3.4,3.11h-4.67a7.51,7.51,0,0,0-4.53,1.3,4.14,4.14,0,0,0-1.64,3.47c0,3,2.64,4.74,5.41,4.74a6.23,6.23,0,0,0,4.46-2h1v1.7h3.22Zm-7.89,2.71h4.65a4.6,4.6,0,0,1-4.72,4c-1.12,0-2.82-.56-2.85-1.91a1.73,1.73,0,0,1,.75-1.48A3.92,3.92,0,0,1,129.72,23.83ZM89.66,21.12c0-3.86-2.62-6.16-6.4-6.18a7.56,7.56,0,0,0-6.84,3.65l2.8,1.56A4.33,4.33,0,0,1,83,18a3.19,3.19,0,0,1,3.4,3.11H81.78c-3,0-6.18,1.29-6.18,4.77,0,3,2.64,4.74,5.42,4.74a6.23,6.23,0,0,0,4.45-2h1v1.7h3.22Zm-7.88,2.71h4.64a4.6,4.6,0,0,1-4.72,4c-1.12,0-2.82-.56-2.85-1.91C78.85,24.3,80.46,23.83,81.78,23.83Zm20.62,2c0,1.77-2.1,1.95-3.43,1.95a3.73,3.73,0,0,1-3.57-2.27L92.61,27A6.82,6.82,0,0,0,99,30.64c3.28,0,6.57-1,6.57-4.86,0-3.25-3.37-4-5.94-4.51l-.15,0c-1.11-.23-3.34-.7-3.27-1.84s1.93-1.53,2.74-1.54a3.64,3.64,0,0,1,3.59,2.29l2.79-1.56A6.75,6.75,0,0,0,99,14.94c-2.79,0-5.83,1.34-5.9,4.51C93,23,96.21,23.7,98.94,24.25l.35.07C100.36,24.52,102.4,24.89,102.4,25.78Zm19.28-7.18a6.69,6.69,0,0,0-6.43-3.66,7.68,7.68,0,0,0-7.62,7.85,7.67,7.67,0,0,0,7.62,7.85c2.93,0,5-1,6.45-3.63l-2.79-1.55a4,4,0,0,1-3.66,2.27c-2.66,0-4.38-2.44-4.38-4.94s1.73-4.93,4.38-4.93a3.71,3.71,0,0,1,3.64,2.3Zm85.6,4.19c0-4.48-3-7.85-7.55-7.85s-7.54,3.37-7.54,7.85,2.88,7.85,7.54,7.85S207.28,27.35,207.28,22.79ZM170.59,30.3h3.28V19.65h-9v3h5.74c-.07,3.27-2.81,5.2-5.92,5-4.1-.3-5.54-3.91-5.54-7.55,0-3.85,1.75-7.56,6.08-7.56a5.51,5.51,0,0,1,5.4,3.72l3-1.65a8.7,8.7,0,0,0-8.35-5.11c-6.25,0-9.49,4.71-9.49,10.6,0,5.47,2.58,10.06,8.43,10.55a6.57,6.57,0,0,0,5.46-2.41h1Zm19.67-7.92c0-4.23-2.47-7.34-6.86-7.34s-7.48,3.44-7.48,7.85,2.83,7.85,7.48,7.85A7.07,7.07,0,0,0,190,27l-2.77-1.55a4,4,0,0,1-3.84,2.36,4.46,4.46,0,0,1-4.05-3.67h10.91ZM183.4,18c2.08,0,3.26,1.42,3.52,3.38h-7.53A4.1,4.1,0,0,1,183.4,18Zm12.1,4.84c0-2.59,1.43-4.94,4.23-4.94S204,20.2,204,22.79s-1.37,4.93-4.24,4.93S195.5,25.43,195.5,22.79Z"></path>
    <path class="cls2-2" d="M0,20C0,35.57,4.43,40,20,40s20-4.43,20-20S35.57,0,20,0,0,4.43,0,20Z"></path>
    <path class="cls2-3" d="M24.15,9A7.1,7.1,0,0,1,31,16.25v1.63a7,7,0,0,1-6.54,7.17h-5A2.23,2.23,0,0,0,17.3,27.5V31H11V25.05a7.09,7.09,0,0,1,6.93-7.17H21a2.44,2.44,0,0,0,2.26,1.71,2.57,2.57,0,0,0,0-5.13A2.42,2.42,0,0,0,21,16.25H17.93A7.11,7.11,0,0,1,11,9Z"></path>
</svg>